<mxfile host="65bd71144e" pages="5">
    <diagram id="BAfZD72lIiWhXa0TtDy-" name="Духовка ИМ">
        <mxGraphModel dx="734" dy="430" grid="1" gridSize="10" guides="1" tooltips="1" connect="1" arrows="1" fold="1" page="1" pageScale="1" pageWidth="827" pageHeight="1169" background="#FFFFFF" math="0" shadow="0">
            <root>
                <mxCell id="0"/>
                <mxCell id="1" parent="0"/>
                <mxCell id="Bxg4SAk7QioH_1-MqU8l-1" value="1. Духовка (ДУ)" style="swimlane;fontStyle=0;childLayout=stackLayout;horizontal=1;startSize=26;fillColor=#b1ddf0;horizontalStack=0;resizeParent=1;resizeParentMax=0;resizeLast=0;collapsible=1;marginBottom=0;strokeColor=#10739e;" parent="1" vertex="1">
                    <mxGeometry x="360" y="40" width="196" height="182" as="geometry"/>
                </mxCell>
                <mxCell id="Bxg4SAk7QioH_1-MqU8l-2" value="* ID Духовки" style="text;strokeColor=none;fillColor=none;align=left;verticalAlign=top;spacingLeft=4;spacingRight=4;overflow=hidden;rotatable=0;points=[[0,0.5],[1,0.5]];portConstraint=eastwest;" parent="Bxg4SAk7QioH_1-MqU8l-1" vertex="1">
                    <mxGeometry y="26" width="196" height="26" as="geometry"/>
                </mxCell>
                <mxCell id="Bxg4SAk7QioH_1-MqU8l-3" value="- ID Электровилки (R12)" style="text;strokeColor=none;fillColor=none;align=left;verticalAlign=top;spacingLeft=4;spacingRight=4;overflow=hidden;rotatable=0;points=[[0,0.5],[1,0.5]];portConstraint=eastwest;" parent="Bxg4SAk7QioH_1-MqU8l-1" vertex="1">
                    <mxGeometry y="52" width="196" height="26" as="geometry"/>
                </mxCell>
                <mxCell id="Bxg4SAk7QioH_1-MqU8l-36" value="- ID Нагревателя (R13)" style="text;strokeColor=none;fillColor=none;align=left;verticalAlign=top;spacingLeft=4;spacingRight=4;overflow=hidden;rotatable=0;points=[[0,0.5],[1,0.5]];portConstraint=eastwest;" parent="Bxg4SAk7QioH_1-MqU8l-1" vertex="1">
                    <mxGeometry y="78" width="196" height="26" as="geometry"/>
                </mxCell>
                <mxCell id="Bxg4SAk7QioH_1-MqU8l-4" value="- ID Регулятор нагрева (R14)" style="text;strokeColor=none;fillColor=none;align=left;verticalAlign=top;spacingLeft=4;spacingRight=4;overflow=hidden;rotatable=0;points=[[0,0.5],[1,0.5]];portConstraint=eastwest;" parent="Bxg4SAk7QioH_1-MqU8l-1" vertex="1">
                    <mxGeometry y="104" width="196" height="26" as="geometry"/>
                </mxCell>
                <mxCell id="Bxg4SAk7QioH_1-MqU8l-37" value="- ID Таймера (R15)" style="text;strokeColor=none;fillColor=none;align=left;verticalAlign=top;spacingLeft=4;spacingRight=4;overflow=hidden;rotatable=0;points=[[0,0.5],[1,0.5]];portConstraint=eastwest;" parent="Bxg4SAk7QioH_1-MqU8l-1" vertex="1">
                    <mxGeometry y="130" width="196" height="26" as="geometry"/>
                </mxCell>
                <mxCell id="-iDoBAoBr8smOl4_uLUE-1" value="- Состояние" style="text;strokeColor=none;fillColor=none;align=left;verticalAlign=top;spacingLeft=4;spacingRight=4;overflow=hidden;rotatable=0;points=[[0,0.5],[1,0.5]];portConstraint=eastwest;" parent="Bxg4SAk7QioH_1-MqU8l-1" vertex="1">
                    <mxGeometry y="156" width="196" height="26" as="geometry"/>
                </mxCell>
                <mxCell id="Bxg4SAk7QioH_1-MqU8l-38" style="edgeStyle=orthogonalEdgeStyle;orthogonalLoop=1;jettySize=auto;html=1;entryX=0;entryY=0.5;entryDx=0;entryDy=0;startArrow=classic;startFill=1;" parent="1" source="Bxg4SAk7QioH_1-MqU8l-6" target="Bxg4SAk7QioH_1-MqU8l-3" edge="1">
                    <mxGeometry relative="1" as="geometry"/>
                </mxCell>
                <mxCell id="Bxg4SAk7QioH_1-MqU8l-43" value="R12" style="edgeLabel;html=1;align=center;verticalAlign=middle;resizable=0;points=[];" parent="Bxg4SAk7QioH_1-MqU8l-38" vertex="1" connectable="0">
                    <mxGeometry x="-0.0636" y="-63" relative="1" as="geometry">
                        <mxPoint x="-4" y="-63" as="offset"/>
                    </mxGeometry>
                </mxCell>
                <mxCell id="Bxg4SAk7QioH_1-MqU8l-6" value="2. Электровилка (ЭВ)" style="swimlane;fontStyle=0;childLayout=stackLayout;horizontal=1;startSize=26;fillColor=#b1ddf0;horizontalStack=0;resizeParent=1;resizeParentMax=0;resizeLast=0;collapsible=1;marginBottom=0;strokeColor=#10739e;" parent="1" vertex="1">
                    <mxGeometry x="20" y="66" width="140" height="78" as="geometry"/>
                </mxCell>
                <mxCell id="Bxg4SAk7QioH_1-MqU8l-7" value="* ID Электровилки" style="text;strokeColor=none;fillColor=none;align=left;verticalAlign=top;spacingLeft=4;spacingRight=4;overflow=hidden;rotatable=0;points=[[0,0.5],[1,0.5]];portConstraint=eastwest;" parent="Bxg4SAk7QioH_1-MqU8l-6" vertex="1">
                    <mxGeometry y="26" width="140" height="26" as="geometry"/>
                </mxCell>
                <mxCell id="Bxg4SAk7QioH_1-MqU8l-8" value="- Состояние" style="text;strokeColor=none;fillColor=none;align=left;verticalAlign=top;spacingLeft=4;spacingRight=4;overflow=hidden;rotatable=0;points=[[0,0.5],[1,0.5]];portConstraint=eastwest;" parent="Bxg4SAk7QioH_1-MqU8l-6" vertex="1">
                    <mxGeometry y="52" width="140" height="26" as="geometry"/>
                </mxCell>
                <mxCell id="Bxg4SAk7QioH_1-MqU8l-44" style="edgeStyle=orthogonalEdgeStyle;orthogonalLoop=1;jettySize=auto;html=1;entryX=0;entryY=0.5;entryDx=0;entryDy=0;startArrow=classic;startFill=1;" parent="1" source="Bxg4SAk7QioH_1-MqU8l-10" target="Bxg4SAk7QioH_1-MqU8l-36" edge="1">
                    <mxGeometry relative="1" as="geometry">
                        <Array as="points">
                            <mxPoint x="250" y="219"/>
                            <mxPoint x="250" y="131"/>
                        </Array>
                    </mxGeometry>
                </mxCell>
                <mxCell id="Bxg4SAk7QioH_1-MqU8l-45" value="R13" style="edgeLabel;html=1;align=center;verticalAlign=middle;resizable=0;points=[];" parent="Bxg4SAk7QioH_1-MqU8l-44" vertex="1" connectable="0">
                    <mxGeometry x="0.4053" y="-48" relative="1" as="geometry">
                        <mxPoint x="-27" y="-9" as="offset"/>
                    </mxGeometry>
                </mxCell>
                <mxCell id="Bxg4SAk7QioH_1-MqU8l-10" value="3. Нагреватель (Н)" style="swimlane;fontStyle=0;childLayout=stackLayout;horizontal=1;startSize=26;fillColor=#b1ddf0;horizontalStack=0;resizeParent=1;resizeParentMax=0;resizeLast=0;collapsible=1;marginBottom=0;strokeColor=#10739e;" parent="1" vertex="1">
                    <mxGeometry x="20" y="180" width="148" height="78" as="geometry"/>
                </mxCell>
                <mxCell id="Bxg4SAk7QioH_1-MqU8l-11" value="* ID Нагревателя" style="text;strokeColor=none;fillColor=none;align=left;verticalAlign=top;spacingLeft=4;spacingRight=4;overflow=hidden;rotatable=0;points=[[0,0.5],[1,0.5]];portConstraint=eastwest;" parent="Bxg4SAk7QioH_1-MqU8l-10" vertex="1">
                    <mxGeometry y="26" width="148" height="26" as="geometry"/>
                </mxCell>
                <mxCell id="Bxg4SAk7QioH_1-MqU8l-12" value="- Состояние" style="text;strokeColor=none;fillColor=none;align=left;verticalAlign=top;spacingLeft=4;spacingRight=4;overflow=hidden;rotatable=0;points=[[0,0.5],[1,0.5]];portConstraint=eastwest;" parent="Bxg4SAk7QioH_1-MqU8l-10" vertex="1">
                    <mxGeometry y="52" width="148" height="26" as="geometry"/>
                </mxCell>
                <mxCell id="Bxg4SAk7QioH_1-MqU8l-46" style="edgeStyle=orthogonalEdgeStyle;orthogonalLoop=1;jettySize=auto;html=1;entryX=0;entryY=0.5;entryDx=0;entryDy=0;startArrow=classic;startFill=1;" parent="1" source="Bxg4SAk7QioH_1-MqU8l-14" target="Bxg4SAk7QioH_1-MqU8l-4" edge="1">
                    <mxGeometry relative="1" as="geometry">
                        <Array as="points">
                            <mxPoint x="324" y="157"/>
                        </Array>
                    </mxGeometry>
                </mxCell>
                <mxCell id="Bxg4SAk7QioH_1-MqU8l-47" value="R14" style="edgeLabel;html=1;align=center;verticalAlign=middle;resizable=0;points=[];" parent="Bxg4SAk7QioH_1-MqU8l-46" vertex="1" connectable="0">
                    <mxGeometry x="-0.2989" relative="1" as="geometry">
                        <mxPoint x="-4" y="-2" as="offset"/>
                    </mxGeometry>
                </mxCell>
                <mxCell id="Bxg4SAk7QioH_1-MqU8l-50" style="edgeStyle=orthogonalEdgeStyle;orthogonalLoop=1;jettySize=auto;html=1;entryX=1;entryY=0.5;entryDx=0;entryDy=0;startArrow=classic;startFill=1;" parent="1" source="Bxg4SAk7QioH_1-MqU8l-30" target="Bxg4SAk7QioH_1-MqU8l-37" edge="1">
                    <mxGeometry relative="1" as="geometry"/>
                </mxCell>
                <mxCell id="Bxg4SAk7QioH_1-MqU8l-51" value="R15" style="edgeLabel;html=1;align=center;verticalAlign=middle;resizable=0;points=[];" parent="Bxg4SAk7QioH_1-MqU8l-50" vertex="1" connectable="0">
                    <mxGeometry x="0.2283" relative="1" as="geometry">
                        <mxPoint x="-10" as="offset"/>
                    </mxGeometry>
                </mxCell>
                <mxCell id="Bxg4SAk7QioH_1-MqU8l-14" value="4. Регулятор температуры (РТ)" style="swimlane;fontStyle=0;childLayout=stackLayout;horizontal=1;startSize=26;fillColor=#b1ddf0;horizontalStack=0;resizeParent=1;resizeParentMax=0;resizeLast=0;collapsible=1;marginBottom=0;strokeColor=#10739e;" parent="1" vertex="1">
                    <mxGeometry x="250" y="306" width="190" height="78" as="geometry">
                        <mxRectangle x="240" y="280" width="180" height="26" as="alternateBounds"/>
                    </mxGeometry>
                </mxCell>
                <mxCell id="Bxg4SAk7QioH_1-MqU8l-15" value="* ID Регулятора температуры" style="text;strokeColor=none;fillColor=none;align=left;verticalAlign=top;spacingLeft=4;spacingRight=4;overflow=hidden;rotatable=0;points=[[0,0.5],[1,0.5]];portConstraint=eastwest;" parent="Bxg4SAk7QioH_1-MqU8l-14" vertex="1">
                    <mxGeometry y="26" width="190" height="26" as="geometry"/>
                </mxCell>
                <mxCell id="Bxg4SAk7QioH_1-MqU8l-16" value="- Состояние" style="text;strokeColor=none;fillColor=none;align=left;verticalAlign=top;spacingLeft=4;spacingRight=4;overflow=hidden;rotatable=0;points=[[0,0.5],[1,0.5]];portConstraint=eastwest;" parent="Bxg4SAk7QioH_1-MqU8l-14" vertex="1">
                    <mxGeometry y="52" width="190" height="26" as="geometry"/>
                </mxCell>
                <mxCell id="Bxg4SAk7QioH_1-MqU8l-30" value="5. Таймер (ТМ)" style="swimlane;fontStyle=0;childLayout=stackLayout;horizontal=1;startSize=26;fillColor=#b1ddf0;horizontalStack=0;resizeParent=1;resizeParentMax=0;resizeLast=0;collapsible=1;marginBottom=0;strokeColor=#10739e;" parent="1" vertex="1">
                    <mxGeometry x="550" y="280" width="130" height="104" as="geometry"/>
                </mxCell>
                <mxCell id="Bxg4SAk7QioH_1-MqU8l-31" value="* ID Таймера" style="text;strokeColor=none;fillColor=none;align=left;verticalAlign=top;spacingLeft=4;spacingRight=4;overflow=hidden;rotatable=0;points=[[0,0.5],[1,0.5]];portConstraint=eastwest;" parent="Bxg4SAk7QioH_1-MqU8l-30" vertex="1">
                    <mxGeometry y="26" width="130" height="26" as="geometry"/>
                </mxCell>
                <mxCell id="Bxg4SAk7QioH_1-MqU8l-32" value="- Время" style="text;strokeColor=none;fillColor=none;align=left;verticalAlign=top;spacingLeft=4;spacingRight=4;overflow=hidden;rotatable=0;points=[[0,0.5],[1,0.5]];portConstraint=eastwest;" parent="Bxg4SAk7QioH_1-MqU8l-30" vertex="1">
                    <mxGeometry y="52" width="130" height="26" as="geometry"/>
                </mxCell>
                <mxCell id="42nqaVoXZhNGfvrAsucc-1" value="- Состояние" style="text;strokeColor=none;fillColor=none;align=left;verticalAlign=top;spacingLeft=4;spacingRight=4;overflow=hidden;rotatable=0;points=[[0,0.5],[1,0.5]];portConstraint=eastwest;" parent="Bxg4SAk7QioH_1-MqU8l-30" vertex="1">
                    <mxGeometry y="78" width="130" height="26" as="geometry"/>
                </mxCell>
            </root>
        </mxGraphModel>
    </diagram>
    <diagram id="ebhZCT4FMkohqddJLS-g" name="Духовка ДПС">
        <mxGraphModel dx="2050" dy="717" grid="1" gridSize="10" guides="1" tooltips="1" connect="1" arrows="1" fold="1" page="1" pageScale="1" pageWidth="827" pageHeight="1169" math="0" shadow="0">
            <root>
                <mxCell id="WTVdDayBTQ0MTywDv6Mj-0"/>
                <mxCell id="WTVdDayBTQ0MTywDv6Mj-1" parent="WTVdDayBTQ0MTywDv6Mj-0"/>
                <mxCell id="Lncw49TM1H4KjZ_BzUi1-0" value="&lt;b style=&quot;font-size: 16px&quot;&gt;Духовка&lt;/b&gt;" style="text;html=1;align=center;verticalAlign=middle;resizable=0;points=[];autosize=1;fontSize=16;" parent="WTVdDayBTQ0MTywDv6Mj-1" vertex="1">
                    <mxGeometry x="173.5" y="20" width="80" height="20" as="geometry"/>
                </mxCell>
                <mxCell id="Lncw49TM1H4KjZ_BzUi1-1" value="1. Выключена" style="html=1;fillColor=#b1ddf0;strokeColor=#10739e;" parent="WTVdDayBTQ0MTywDv6Mj-1" vertex="1">
                    <mxGeometry x="270" y="145" width="131" height="30" as="geometry"/>
                </mxCell>
                <mxCell id="98ti1gU637mouh8DQ8eZ-12" style="edgeStyle=orthogonalEdgeStyle;curved=0;rounded=1;sketch=0;orthogonalLoop=1;jettySize=auto;html=1;exitX=0.75;exitY=0;exitDx=0;exitDy=0;entryX=1;entryY=0.25;entryDx=0;entryDy=0;fontSize=15;" parent="WTVdDayBTQ0MTywDv6Mj-1" source="Lncw49TM1H4KjZ_BzUi1-3" target="Lncw49TM1H4KjZ_BzUi1-1" edge="1">
                    <mxGeometry relative="1" as="geometry">
                        <Array as="points">
                            <mxPoint x="527" y="152"/>
                        </Array>
                    </mxGeometry>
                </mxCell>
                <mxCell id="98ti1gU637mouh8DQ8eZ-13" value="ДУ2" style="edgeLabel;html=1;align=center;verticalAlign=middle;resizable=0;points=[];fontSize=12;" parent="98ti1gU637mouh8DQ8eZ-12" vertex="1" connectable="0">
                    <mxGeometry x="-0.2841" y="1" relative="1" as="geometry">
                        <mxPoint x="5" y="47" as="offset"/>
                    </mxGeometry>
                </mxCell>
                <mxCell id="hgGM4-Haj7C2qqy3yOSG-5" style="edgeStyle=none;orthogonalLoop=1;jettySize=auto;html=1;exitX=0.5;exitY=1;exitDx=0;exitDy=0;fontSize=12;" parent="WTVdDayBTQ0MTywDv6Mj-1" source="Lncw49TM1H4KjZ_BzUi1-3" target="b4PxU3jFzDO1NrmyhvWv-0" edge="1">
                    <mxGeometry relative="1" as="geometry">
                        <mxPoint x="401" y="397" as="targetPoint"/>
                        <Array as="points">
                            <mxPoint x="495" y="397"/>
                            <mxPoint x="220" y="397"/>
                            <mxPoint x="220" y="377"/>
                        </Array>
                    </mxGeometry>
                </mxCell>
                <mxCell id="hgGM4-Haj7C2qqy3yOSG-6" value="ДУ3" style="edgeLabel;html=1;align=center;verticalAlign=middle;resizable=0;points=[];fontSize=12;" parent="hgGM4-Haj7C2qqy3yOSG-5" vertex="1" connectable="0">
                    <mxGeometry x="-0.1655" y="-1" relative="1" as="geometry">
                        <mxPoint x="-34" y="1" as="offset"/>
                    </mxGeometry>
                </mxCell>
                <mxCell id="Lncw49TM1H4KjZ_BzUi1-3" value="2. В режиме ожидания" style="html=1;fillColor=#b1ddf0;strokeColor=#10739e;" parent="WTVdDayBTQ0MTywDv6Mj-1" vertex="1">
                    <mxGeometry x="429" y="309" width="131" height="30" as="geometry"/>
                </mxCell>
                <mxCell id="Lncw49TM1H4KjZ_BzUi1-13" value="&lt;b&gt;ДУ1:&lt;/b&gt;&amp;nbsp;Подключить в сеть" style="text;html=1;align=left;verticalAlign=middle;resizable=0;points=[];autosize=1;" parent="WTVdDayBTQ0MTywDv6Mj-1" vertex="1">
                    <mxGeometry x="606" y="24" width="150" height="20" as="geometry"/>
                </mxCell>
                <mxCell id="Lncw49TM1H4KjZ_BzUi1-14" value="&lt;b&gt;ДУ2:&lt;/b&gt;&amp;nbsp;Выключить из сети" style="text;html=1;align=left;verticalAlign=middle;resizable=0;points=[];autosize=1;" parent="WTVdDayBTQ0MTywDv6Mj-1" vertex="1">
                    <mxGeometry x="604.5" y="44" width="150" height="20" as="geometry"/>
                </mxCell>
                <mxCell id="Lncw49TM1H4KjZ_BzUi1-18" value="&lt;b&gt;ДУ3:&lt;/b&gt;&amp;nbsp;Установить температуру" style="text;html=1;align=left;verticalAlign=middle;resizable=0;points=[];autosize=1;" parent="WTVdDayBTQ0MTywDv6Mj-1" vertex="1">
                    <mxGeometry x="604.5" y="64" width="180" height="20" as="geometry"/>
                </mxCell>
                <mxCell id="b4PxU3jFzDO1NrmyhvWv-9" style="edgeStyle=orthogonalEdgeStyle;rounded=0;orthogonalLoop=1;jettySize=auto;html=1;startArrow=none;startFill=0;endArrow=classic;endFill=1;entryX=0;entryY=0.5;entryDx=0;entryDy=0;" parent="WTVdDayBTQ0MTywDv6Mj-1" source="b4PxU3jFzDO1NrmyhvWv-0" edge="1" target="Lncw49TM1H4KjZ_BzUi1-3">
                    <mxGeometry relative="1" as="geometry">
                        <mxPoint x="429" y="292" as="targetPoint"/>
                        <Array as="points">
                            <mxPoint x="230" y="324"/>
                        </Array>
                    </mxGeometry>
                </mxCell>
                <mxCell id="hgGM4-Haj7C2qqy3yOSG-8" value="ДУ4" style="edgeLabel;html=1;align=center;verticalAlign=middle;resizable=0;points=[];fontSize=12;" parent="b4PxU3jFzDO1NrmyhvWv-9" vertex="1" connectable="0">
                    <mxGeometry x="-0.0501" relative="1" as="geometry">
                        <mxPoint x="-64" as="offset"/>
                    </mxGeometry>
                </mxCell>
                <mxCell id="hgGM4-Haj7C2qqy3yOSG-11" style="edgeStyle=none;orthogonalLoop=1;jettySize=auto;html=1;exitX=0.5;exitY=0;exitDx=0;exitDy=0;fontSize=12;" parent="WTVdDayBTQ0MTywDv6Mj-1" source="b4PxU3jFzDO1NrmyhvWv-0" edge="1">
                    <mxGeometry relative="1" as="geometry">
                        <Array as="points">
                            <mxPoint x="160" y="170"/>
                        </Array>
                        <mxPoint x="270" y="170" as="targetPoint"/>
                    </mxGeometry>
                </mxCell>
                <mxCell id="hgGM4-Haj7C2qqy3yOSG-12" value="ДУ2" style="edgeLabel;html=1;align=center;verticalAlign=middle;resizable=0;points=[];fontSize=12;" parent="hgGM4-Haj7C2qqy3yOSG-11" vertex="1" connectable="0">
                    <mxGeometry x="-0.0778" y="-1" relative="1" as="geometry">
                        <mxPoint x="-7" y="29" as="offset"/>
                    </mxGeometry>
                </mxCell>
                <mxCell id="b4PxU3jFzDO1NrmyhvWv-0" value="3. В процессе приготовления" style="html=1;fillColor=#b1ddf0;strokeColor=#10739e;" parent="WTVdDayBTQ0MTywDv6Mj-1" vertex="1">
                    <mxGeometry x="70" y="347" width="180" height="30" as="geometry"/>
                </mxCell>
                <mxCell id="b4PxU3jFzDO1NrmyhvWv-5" value="&lt;b&gt;ДУ4: &lt;/b&gt;Выключить регулятор нагрева" style="text;html=1;align=left;verticalAlign=middle;resizable=0;points=[];autosize=1;" parent="WTVdDayBTQ0MTywDv6Mj-1" vertex="1">
                    <mxGeometry x="604.5" y="84" width="210" height="20" as="geometry"/>
                </mxCell>
                <mxCell id="FIxSSlmuzdaev1VPEtYf-8" value="&lt;table border=&quot;1&quot; width=&quot;100%&quot; style=&quot;width: 100% ; height: 100% ; border-collapse: collapse&quot;&gt;&lt;tbody&gt;&lt;tr&gt;&lt;td&gt;&lt;b&gt;№&lt;/b&gt;&lt;/td&gt;&lt;td&gt;&lt;b&gt;ДУ1&lt;/b&gt;&lt;/td&gt;&lt;td&gt;&lt;b&gt;ДУ2&lt;/b&gt;&lt;/td&gt;&lt;td&gt;&lt;b&gt;ДУ3&lt;/b&gt;&lt;/td&gt;&lt;td&gt;&lt;b&gt;ДУ4&lt;/b&gt;&lt;/td&gt;&lt;td&gt;&lt;b&gt;ДУ5&lt;/b&gt;&lt;/td&gt;&lt;td&gt;&lt;b&gt;ДУ6&lt;/b&gt;&lt;/td&gt;&lt;td&gt;&lt;b&gt;ДУ7&lt;/b&gt;&lt;/td&gt;&lt;td&gt;&lt;b&gt;ДУ8&lt;/b&gt;&lt;/td&gt;&lt;td&gt;&lt;b&gt;ДУ9&lt;/b&gt;&lt;/td&gt;&lt;/tr&gt;&lt;tr&gt;&lt;td&gt;&lt;b&gt;1&lt;/b&gt;&lt;/td&gt;&lt;td&gt;2&lt;/td&gt;&lt;td&gt;-&lt;/td&gt;&lt;td&gt;-&lt;/td&gt;&lt;td&gt;-&lt;/td&gt;&lt;td&gt;-&lt;/td&gt;&lt;td&gt;-&lt;/td&gt;&lt;td&gt;-&lt;/td&gt;&lt;td&gt;5&lt;/td&gt;&lt;td&gt;-&lt;/td&gt;&lt;/tr&gt;&lt;tr&gt;&lt;td&gt;&lt;b&gt;2&lt;/b&gt;&lt;/td&gt;&lt;td&gt;-&lt;/td&gt;&lt;td&gt;1&lt;/td&gt;&lt;td&gt;3&lt;/td&gt;&lt;td&gt;-&lt;/td&gt;&lt;td&gt;-&lt;/td&gt;&lt;td&gt;-&lt;/td&gt;&lt;td&gt;-&lt;/td&gt;&lt;td&gt;-&lt;/td&gt;&lt;td&gt;-&lt;/td&gt;&lt;/tr&gt;&lt;tr&gt;&lt;td&gt;&lt;b&gt;3&lt;/b&gt;&lt;/td&gt;&lt;td&gt;-&lt;/td&gt;&lt;td&gt;1&lt;/td&gt;&lt;td&gt;3&lt;/td&gt;&lt;td&gt;2&lt;/td&gt;&lt;td&gt;4&lt;/td&gt;&lt;td&gt;-&lt;/td&gt;&lt;td&gt;-&lt;/td&gt;&lt;td&gt;-&lt;/td&gt;&lt;td&gt;-&lt;/td&gt;&lt;/tr&gt;&lt;tr&gt;&lt;td&gt;&lt;b&gt;4&lt;/b&gt;&lt;/td&gt;&lt;td&gt;-&lt;/td&gt;&lt;td&gt;1&lt;/td&gt;&lt;td&gt;-&lt;/td&gt;&lt;td&gt;-&lt;/td&gt;&lt;td&gt;4&lt;/td&gt;&lt;td&gt;2&lt;/td&gt;&lt;td&gt;3&lt;/td&gt;&lt;td&gt;-&lt;/td&gt;&lt;td&gt;-&lt;/td&gt;&lt;/tr&gt;&lt;tr&gt;&lt;td&gt;&lt;b&gt;5&lt;/b&gt;&lt;/td&gt;&lt;td&gt;-&lt;/td&gt;&lt;td&gt;-&lt;/td&gt;&lt;td&gt;-&lt;/td&gt;&lt;td&gt;-&lt;/td&gt;&lt;td&gt;-&lt;/td&gt;&lt;td&gt;-&lt;/td&gt;&lt;td&gt;-&lt;/td&gt;&lt;td&gt;-&lt;/td&gt;&lt;td&gt;-&lt;/td&gt;&lt;/tr&gt;&lt;tr&gt;&lt;td&gt;&lt;b&gt;6&lt;/b&gt;&lt;/td&gt;&lt;td&gt;-&lt;/td&gt;&lt;td&gt;-&lt;/td&gt;&lt;td&gt;-&lt;/td&gt;&lt;td&gt;-&lt;/td&gt;&lt;td&gt;-&lt;/td&gt;&lt;td&gt;-&lt;/td&gt;&lt;td&gt;-&lt;/td&gt;&lt;td&gt;-&lt;/td&gt;&lt;td&gt;2&lt;/td&gt;&lt;/tr&gt;&lt;/tbody&gt;&lt;/table&gt;" style="text;html=1;strokeColor=none;fillColor=none;overflow=fill;align=center;rounded=0;labelBorderColor=#000000;" parent="WTVdDayBTQ0MTywDv6Mj-1" vertex="1">
                    <mxGeometry x="600" y="225" width="280" height="140" as="geometry"/>
                </mxCell>
                <mxCell id="M693_9Bd0WQ16jZkxc2S-0" value="&lt;b style=&quot;font-size: 16px;&quot;&gt;Электровилка&lt;/b&gt;" style="text;html=1;align=center;verticalAlign=middle;resizable=0;points=[];autosize=1;fontSize=16;" parent="WTVdDayBTQ0MTywDv6Mj-1" vertex="1">
                    <mxGeometry x="70" y="430" width="130" height="20" as="geometry"/>
                </mxCell>
                <mxCell id="M693_9Bd0WQ16jZkxc2S-4" style="edgeStyle=orthogonalEdgeStyle;rounded=0;orthogonalLoop=1;jettySize=auto;html=1;exitX=0.25;exitY=1;exitDx=0;exitDy=0;startArrow=none;startFill=0;endArrow=classic;endFill=1;entryX=0.25;entryY=0;entryDx=0;entryDy=0;" parent="WTVdDayBTQ0MTywDv6Mj-1" source="M693_9Bd0WQ16jZkxc2S-2" target="M693_9Bd0WQ16jZkxc2S-3" edge="1">
                    <mxGeometry relative="1" as="geometry">
                        <Array as="points">
                            <mxPoint x="110" y="540"/>
                            <mxPoint x="110" y="580"/>
                        </Array>
                        <mxPoint x="120" y="580" as="targetPoint"/>
                    </mxGeometry>
                </mxCell>
                <mxCell id="M693_9Bd0WQ16jZkxc2S-7" value="ЭВ1" style="edgeLabel;html=1;align=center;verticalAlign=middle;resizable=0;points=[];" parent="M693_9Bd0WQ16jZkxc2S-4" vertex="1" connectable="0">
                    <mxGeometry x="-0.214" y="9" relative="1" as="geometry">
                        <mxPoint x="-26" as="offset"/>
                    </mxGeometry>
                </mxCell>
                <mxCell id="M693_9Bd0WQ16jZkxc2S-2" value="1. Выключена из сети" style="html=1;fillColor=#b1ddf0;strokeColor=#10739e;" parent="WTVdDayBTQ0MTywDv6Mj-1" vertex="1">
                    <mxGeometry x="74" y="510" width="143" height="30" as="geometry"/>
                </mxCell>
                <mxCell id="M693_9Bd0WQ16jZkxc2S-5" style="edgeStyle=orthogonalEdgeStyle;rounded=0;orthogonalLoop=1;jettySize=auto;html=1;exitX=0.75;exitY=0;exitDx=0;exitDy=0;entryX=0.75;entryY=1;entryDx=0;entryDy=0;startArrow=none;startFill=0;endArrow=classic;endFill=1;" parent="WTVdDayBTQ0MTywDv6Mj-1" source="M693_9Bd0WQ16jZkxc2S-3" target="M693_9Bd0WQ16jZkxc2S-2" edge="1">
                    <mxGeometry relative="1" as="geometry">
                        <Array as="points">
                            <mxPoint x="181" y="590"/>
                            <mxPoint x="181" y="590"/>
                            <mxPoint x="181" y="560"/>
                            <mxPoint x="181" y="560"/>
                        </Array>
                    </mxGeometry>
                </mxCell>
                <mxCell id="M693_9Bd0WQ16jZkxc2S-8" value="ЭВ2" style="edgeLabel;html=1;align=center;verticalAlign=middle;resizable=0;points=[];" parent="M693_9Bd0WQ16jZkxc2S-5" vertex="1" connectable="0">
                    <mxGeometry x="0.0922" y="1" relative="1" as="geometry">
                        <mxPoint x="19" y="-2" as="offset"/>
                    </mxGeometry>
                </mxCell>
                <mxCell id="M693_9Bd0WQ16jZkxc2S-3" value="2. Включена в сеть" style="html=1;fillColor=#b1ddf0;strokeColor=#10739e;" parent="WTVdDayBTQ0MTywDv6Mj-1" vertex="1">
                    <mxGeometry x="74" y="600" width="143" height="30" as="geometry"/>
                </mxCell>
                <mxCell id="M693_9Bd0WQ16jZkxc2S-9" value="&lt;b&gt;ЭВ1:&lt;/b&gt;&amp;nbsp;Питание подается" style="text;html=1;align=left;verticalAlign=middle;resizable=0;points=[];autosize=1;" parent="WTVdDayBTQ0MTywDv6Mj-1" vertex="1">
                    <mxGeometry x="189.5" y="680" width="150" height="20" as="geometry"/>
                </mxCell>
                <mxCell id="M693_9Bd0WQ16jZkxc2S-10" value="&lt;b&gt;ЭВ2&lt;/b&gt;: Питание не подается" style="text;html=1;align=left;verticalAlign=middle;resizable=0;points=[];autosize=1;" parent="WTVdDayBTQ0MTywDv6Mj-1" vertex="1">
                    <mxGeometry x="190.5" y="710" width="160" height="20" as="geometry"/>
                </mxCell>
                <mxCell id="M693_9Bd0WQ16jZkxc2S-11" value="&lt;table border=&quot;1&quot; width=&quot;100%&quot; style=&quot;width: 100% ; height: 100% ; border-collapse: collapse&quot;&gt;&lt;tbody&gt;&lt;tr&gt;&lt;td&gt;&lt;b&gt;№&lt;/b&gt;&lt;/td&gt;&lt;td&gt;&lt;b&gt;ЭВ1&lt;/b&gt;&lt;/td&gt;&lt;td&gt;&lt;b&gt;ЭВ2&lt;/b&gt;&lt;/td&gt;&lt;/tr&gt;&lt;tr&gt;&lt;td&gt;&lt;b&gt;1&lt;/b&gt;&lt;/td&gt;&lt;td&gt;2&lt;/td&gt;&lt;td&gt;-&lt;/td&gt;&lt;/tr&gt;&lt;tr&gt;&lt;td&gt;&lt;b&gt;2&lt;/b&gt;&lt;/td&gt;&lt;td&gt;-&lt;/td&gt;&lt;td&gt;1&lt;/td&gt;&lt;/tr&gt;&lt;/tbody&gt;&lt;/table&gt;" style="text;html=1;strokeColor=none;fillColor=none;overflow=fill;align=center;" parent="WTVdDayBTQ0MTywDv6Mj-1" vertex="1">
                    <mxGeometry x="42.5" y="672.5" width="127.5" height="67.5" as="geometry"/>
                </mxCell>
                <mxCell id="0vffr-KFjJddq6IPub8_-0" value="&lt;b style=&quot;font-size: 16px;&quot;&gt;Нагреватель&lt;/b&gt;" style="text;html=1;align=center;verticalAlign=middle;resizable=0;points=[];autosize=1;fontSize=16;" parent="WTVdDayBTQ0MTywDv6Mj-1" vertex="1">
                    <mxGeometry x="564.5" y="420" width="120" height="20" as="geometry"/>
                </mxCell>
                <mxCell id="cLGsa8kHE7V3eEpcV2YQ-0" value="&lt;b style=&quot;font-size: 16px&quot;&gt;Регулятор температуры&lt;/b&gt;" style="text;html=1;align=center;verticalAlign=middle;resizable=0;points=[];autosize=1;fontSize=16;" parent="WTVdDayBTQ0MTywDv6Mj-1" vertex="1">
                    <mxGeometry x="362" y="780" width="210" height="20" as="geometry"/>
                </mxCell>
                <mxCell id="ed72BDYkx698F_OWr5iG-0" value="&lt;b style=&quot;font-size: 16px;&quot;&gt;Таймер&lt;/b&gt;" style="text;html=1;align=center;verticalAlign=middle;resizable=0;points=[];autosize=1;fontSize=16;" parent="WTVdDayBTQ0MTywDv6Mj-1" vertex="1">
                    <mxGeometry x="127" y="1260" width="70" height="20" as="geometry"/>
                </mxCell>
                <mxCell id="ed72BDYkx698F_OWr5iG-1" style="edgeStyle=orthogonalEdgeStyle;rounded=0;orthogonalLoop=1;jettySize=auto;html=1;exitX=0.5;exitY=0;exitDx=0;exitDy=0;startArrow=classic;startFill=1;endArrow=none;endFill=0;" parent="WTVdDayBTQ0MTywDv6Mj-1" source="ed72BDYkx698F_OWr5iG-4" edge="1">
                    <mxGeometry relative="1" as="geometry">
                        <mxPoint x="162" y="1300" as="targetPoint"/>
                    </mxGeometry>
                </mxCell>
                <mxCell id="ed72BDYkx698F_OWr5iG-2" style="edgeStyle=orthogonalEdgeStyle;rounded=0;orthogonalLoop=1;jettySize=auto;html=1;exitX=1;exitY=0.25;exitDx=0;exitDy=0;entryX=0;entryY=0.25;entryDx=0;entryDy=0;startArrow=none;startFill=0;endArrow=classic;endFill=1;" parent="WTVdDayBTQ0MTywDv6Mj-1" source="ed72BDYkx698F_OWr5iG-4" target="ed72BDYkx698F_OWr5iG-7" edge="1">
                    <mxGeometry relative="1" as="geometry">
                        <Array as="points">
                            <mxPoint x="217" y="1359"/>
                            <mxPoint x="347" y="1359"/>
                        </Array>
                    </mxGeometry>
                </mxCell>
                <mxCell id="ed72BDYkx698F_OWr5iG-3" value="ТМ1" style="edgeLabel;html=1;align=center;verticalAlign=middle;resizable=0;points=[];" parent="ed72BDYkx698F_OWr5iG-2" vertex="1" connectable="0">
                    <mxGeometry x="-0.214" y="9" relative="1" as="geometry">
                        <mxPoint x="-34" as="offset"/>
                    </mxGeometry>
                </mxCell>
                <mxCell id="ed72BDYkx698F_OWr5iG-4" value="1. Сброшен" style="html=1;fillColor=#b1ddf0;strokeColor=#10739e;" parent="WTVdDayBTQ0MTywDv6Mj-1" vertex="1">
                    <mxGeometry x="107" y="1350" width="110" height="30" as="geometry"/>
                </mxCell>
                <mxCell id="ed72BDYkx698F_OWr5iG-5" style="edgeStyle=orthogonalEdgeStyle;rounded=0;orthogonalLoop=1;jettySize=auto;html=1;exitX=0;exitY=0.75;exitDx=0;exitDy=0;entryX=1;entryY=0.75;entryDx=0;entryDy=0;startArrow=none;startFill=0;endArrow=classic;endFill=1;" parent="WTVdDayBTQ0MTywDv6Mj-1" source="ed72BDYkx698F_OWr5iG-7" target="ed72BDYkx698F_OWr5iG-4" edge="1">
                    <mxGeometry relative="1" as="geometry">
                        <Array as="points">
                            <mxPoint x="357" y="1373"/>
                            <mxPoint x="217" y="1373"/>
                        </Array>
                    </mxGeometry>
                </mxCell>
                <mxCell id="ed72BDYkx698F_OWr5iG-6" value="ТМ2" style="edgeLabel;html=1;align=center;verticalAlign=middle;resizable=0;points=[];" parent="ed72BDYkx698F_OWr5iG-5" vertex="1" connectable="0">
                    <mxGeometry x="0.0922" y="1" relative="1" as="geometry">
                        <mxPoint x="40" y="6" as="offset"/>
                    </mxGeometry>
                </mxCell>
                <mxCell id="mELa6HacjAUEjYhnBwNs-0" style="edgeStyle=none;orthogonalLoop=1;jettySize=auto;html=1;exitX=0.25;exitY=0;exitDx=0;exitDy=0;fontSize=12;entryX=0.75;entryY=0;entryDx=0;entryDy=0;" parent="WTVdDayBTQ0MTywDv6Mj-1" source="ed72BDYkx698F_OWr5iG-7" target="ed72BDYkx698F_OWr5iG-7" edge="1">
                    <mxGeometry relative="1" as="geometry">
                        <mxPoint x="417" y="1320" as="targetPoint"/>
                        <Array as="points">
                            <mxPoint x="384" y="1330"/>
                            <mxPoint x="440" y="1330"/>
                        </Array>
                    </mxGeometry>
                </mxCell>
                <mxCell id="mELa6HacjAUEjYhnBwNs-1" value="ТМ1" style="edgeLabel;html=1;align=center;verticalAlign=middle;resizable=0;points=[];fontSize=12;" parent="mELa6HacjAUEjYhnBwNs-0" vertex="1" connectable="0">
                    <mxGeometry x="-0.1804" relative="1" as="geometry">
                        <mxPoint x="8" y="-10" as="offset"/>
                    </mxGeometry>
                </mxCell>
                <mxCell id="mELa6HacjAUEjYhnBwNs-5" style="edgeStyle=none;orthogonalLoop=1;jettySize=auto;html=1;exitX=0.5;exitY=1;exitDx=0;exitDy=0;entryX=0.5;entryY=0;entryDx=0;entryDy=0;fontSize=12;" parent="WTVdDayBTQ0MTywDv6Mj-1" source="ed72BDYkx698F_OWr5iG-7" target="ed72BDYkx698F_OWr5iG-11" edge="1">
                    <mxGeometry relative="1" as="geometry"/>
                </mxCell>
                <mxCell id="mELa6HacjAUEjYhnBwNs-9" value="&lt;font style=&quot;font-size: 12px&quot;&gt;ТМ3&lt;/font&gt;" style="edgeLabel;html=1;align=center;verticalAlign=middle;resizable=0;points=[];fontSize=16;" parent="mELa6HacjAUEjYhnBwNs-5" vertex="1" connectable="0">
                    <mxGeometry x="-0.1311" y="2" relative="1" as="geometry">
                        <mxPoint x="17" y="-39" as="offset"/>
                    </mxGeometry>
                </mxCell>
                <mxCell id="ed72BDYkx698F_OWr5iG-7" value="2. Установлен" style="html=1;fillColor=#b1ddf0;strokeColor=#10739e;" parent="WTVdDayBTQ0MTywDv6Mj-1" vertex="1">
                    <mxGeometry x="357" y="1350" width="110" height="34" as="geometry"/>
                </mxCell>
                <mxCell id="ed72BDYkx698F_OWr5iG-8" value="&lt;b&gt;ТМ1:&lt;/b&gt; Установить" style="text;html=1;align=left;verticalAlign=middle;resizable=0;points=[];autosize=1;" parent="WTVdDayBTQ0MTywDv6Mj-1" vertex="1">
                    <mxGeometry x="584.5" y="1300" width="110" height="20" as="geometry"/>
                </mxCell>
                <mxCell id="ed72BDYkx698F_OWr5iG-9" value="&lt;b&gt;ТМ2:&lt;/b&gt; Сбросить" style="text;html=1;align=left;verticalAlign=middle;resizable=0;points=[];autosize=1;" parent="WTVdDayBTQ0MTywDv6Mj-1" vertex="1">
                    <mxGeometry x="584.5" y="1320" width="100" height="20" as="geometry"/>
                </mxCell>
                <mxCell id="MZdWhIfB51AL_46SsiLZ-1" value="ТМ4" style="edgeStyle=orthogonalEdgeStyle;rounded=0;orthogonalLoop=1;jettySize=auto;html=1;exitX=0;exitY=0.5;exitDx=0;exitDy=0;entryX=1;entryY=0.5;entryDx=0;entryDy=0;startArrow=none;startFill=0;endArrow=classic;endFill=1;" parent="WTVdDayBTQ0MTywDv6Mj-1" source="ed72BDYkx698F_OWr5iG-11" target="ed72BDYkx698F_OWr5iG-12" edge="1">
                    <mxGeometry x="-0.6364" y="-15" relative="1" as="geometry">
                        <mxPoint as="offset"/>
                    </mxGeometry>
                </mxCell>
                <mxCell id="MZdWhIfB51AL_46SsiLZ-3" value="ТМ2" style="edgeStyle=orthogonalEdgeStyle;rounded=0;orthogonalLoop=1;jettySize=auto;html=1;exitX=0.25;exitY=0;exitDx=0;exitDy=0;startArrow=none;startFill=0;endArrow=classic;endFill=1;entryX=0.75;entryY=1;entryDx=0;entryDy=0;" parent="WTVdDayBTQ0MTywDv6Mj-1" source="ed72BDYkx698F_OWr5iG-11" target="ed72BDYkx698F_OWr5iG-4" edge="1">
                    <mxGeometry x="-0.8142" y="12" relative="1" as="geometry">
                        <mxPoint x="227" y="1410" as="targetPoint"/>
                        <Array as="points">
                            <mxPoint x="382" y="1445"/>
                            <mxPoint x="190" y="1445"/>
                        </Array>
                        <mxPoint as="offset"/>
                    </mxGeometry>
                </mxCell>
                <mxCell id="qhQN7O6jG8hze2QKtxBv-0" style="edgeStyle=none;orthogonalLoop=1;jettySize=auto;html=1;exitX=0.75;exitY=1;exitDx=0;exitDy=0;fontSize=16;entryX=0.25;entryY=1;entryDx=0;entryDy=0;" parent="WTVdDayBTQ0MTywDv6Mj-1" source="ed72BDYkx698F_OWr5iG-11" target="ed72BDYkx698F_OWr5iG-11" edge="1">
                    <mxGeometry relative="1" as="geometry">
                        <mxPoint x="390" y="1560" as="targetPoint"/>
                        <Array as="points">
                            <mxPoint x="439" y="1560"/>
                            <mxPoint x="400" y="1560"/>
                            <mxPoint x="382" y="1560"/>
                        </Array>
                    </mxGeometry>
                </mxCell>
                <mxCell id="qhQN7O6jG8hze2QKtxBv-1" value="ТМ3" style="edgeLabel;html=1;align=center;verticalAlign=middle;resizable=0;points=[];fontSize=12;" parent="qhQN7O6jG8hze2QKtxBv-0" vertex="1" connectable="0">
                    <mxGeometry x="0.0453" y="-1" relative="1" as="geometry">
                        <mxPoint as="offset"/>
                    </mxGeometry>
                </mxCell>
                <mxCell id="ed72BDYkx698F_OWr5iG-11" value="3. Отсчет времени" style="html=1;fillColor=#b1ddf0;strokeColor=#10739e;" parent="WTVdDayBTQ0MTywDv6Mj-1" vertex="1">
                    <mxGeometry x="354" y="1510" width="113" height="30" as="geometry"/>
                </mxCell>
                <mxCell id="MZdWhIfB51AL_46SsiLZ-2" value="ТМ2" style="edgeStyle=orthogonalEdgeStyle;rounded=0;orthogonalLoop=1;jettySize=auto;html=1;startArrow=none;startFill=0;endArrow=classic;endFill=1;entryX=0.5;entryY=1;entryDx=0;entryDy=0;exitX=0.5;exitY=0;exitDx=0;exitDy=0;" parent="WTVdDayBTQ0MTywDv6Mj-1" source="ed72BDYkx698F_OWr5iG-12" target="ed72BDYkx698F_OWr5iG-4" edge="1">
                    <mxGeometry x="-0.7255" y="15" relative="1" as="geometry">
                        <mxPoint x="127" y="1480" as="sourcePoint"/>
                        <mxPoint x="157" y="1400" as="targetPoint"/>
                        <Array as="points">
                            <mxPoint x="162" y="1508"/>
                        </Array>
                        <mxPoint as="offset"/>
                    </mxGeometry>
                </mxCell>
                <mxCell id="ed72BDYkx698F_OWr5iG-12" value="4. Подача сигнала" style="html=1;fillColor=#b1ddf0;strokeColor=#10739e;" parent="WTVdDayBTQ0MTywDv6Mj-1" vertex="1">
                    <mxGeometry x="102" y="1507.5" width="120" height="35" as="geometry"/>
                </mxCell>
                <mxCell id="MZdWhIfB51AL_46SsiLZ-4" value="&lt;b&gt;ТМ3: &lt;/b&gt;Тик" style="text;html=1;align=left;verticalAlign=middle;resizable=0;points=[];autosize=1;" parent="WTVdDayBTQ0MTywDv6Mj-1" vertex="1">
                    <mxGeometry x="584.5" y="1340" width="70" height="20" as="geometry"/>
                </mxCell>
                <mxCell id="MZdWhIfB51AL_46SsiLZ-6" value="&lt;b&gt;ТМ4: &lt;/b&gt;Время истекло" style="text;html=1;align=left;verticalAlign=middle;resizable=0;points=[];autosize=1;" parent="WTVdDayBTQ0MTywDv6Mj-1" vertex="1">
                    <mxGeometry x="584.5" y="1360" width="130" height="20" as="geometry"/>
                </mxCell>
                <mxCell id="MZdWhIfB51AL_46SsiLZ-8" value="&lt;table border=&quot;1&quot; width=&quot;100%&quot; style=&quot;width: 100% ; height: 100% ; border-collapse: collapse&quot;&gt;&lt;tbody&gt;&lt;tr&gt;&lt;td&gt;&lt;b&gt;№&lt;/b&gt;&lt;/td&gt;&lt;td&gt;&lt;b&gt;ТМ1&lt;/b&gt;&lt;/td&gt;&lt;td&gt;&lt;b&gt;ТМ2&lt;/b&gt;&lt;/td&gt;&lt;td&gt;&lt;b&gt;ТМ3&lt;/b&gt;&lt;/td&gt;&lt;td&gt;&lt;b&gt;ТМ4&lt;/b&gt;&lt;/td&gt;&lt;td&gt;&lt;b&gt;ТМ5&lt;/b&gt;&lt;/td&gt;&lt;/tr&gt;&lt;tr&gt;&lt;td&gt;&lt;b&gt;1&lt;/b&gt;&lt;/td&gt;&lt;td&gt;2&lt;/td&gt;&lt;td&gt;-&lt;/td&gt;&lt;td&gt;-&lt;/td&gt;&lt;td&gt;-&lt;/td&gt;&lt;td&gt;5&lt;/td&gt;&lt;/tr&gt;&lt;tr&gt;&lt;td&gt;&lt;b&gt;2&lt;/b&gt;&lt;/td&gt;&lt;td&gt;2&lt;br&gt;&lt;/td&gt;&lt;td&gt;1&lt;/td&gt;&lt;td&gt;3&lt;/td&gt;&lt;td&gt;-&lt;/td&gt;&lt;td&gt;-&lt;/td&gt;&lt;/tr&gt;&lt;tr&gt;&lt;td&gt;&lt;b&gt;3&lt;/b&gt;&lt;/td&gt;&lt;td&gt;-&lt;/td&gt;&lt;td&gt;1&lt;/td&gt;&lt;td&gt;-&lt;/td&gt;&lt;td&gt;4&lt;/td&gt;&lt;td&gt;-&lt;/td&gt;&lt;/tr&gt;&lt;tr&gt;&lt;td&gt;&lt;b&gt;4&lt;/b&gt;&lt;/td&gt;&lt;td&gt;-&lt;/td&gt;&lt;td&gt;1&lt;/td&gt;&lt;td&gt;-&lt;/td&gt;&lt;td&gt;-&lt;/td&gt;&lt;td&gt;-&lt;/td&gt;&lt;/tr&gt;&lt;tr&gt;&lt;td&gt;&lt;b&gt;5&lt;/b&gt;&lt;/td&gt;&lt;td&gt;2&lt;/td&gt;&lt;td&gt;-&lt;/td&gt;&lt;td&gt;-&lt;/td&gt;&lt;td&gt;-&lt;/td&gt;&lt;td&gt;-&lt;/td&gt;&lt;/tr&gt;&lt;/tbody&gt;&lt;/table&gt;" style="text;html=1;strokeColor=none;fillColor=none;overflow=fill;align=center;" parent="WTVdDayBTQ0MTywDv6Mj-1" vertex="1">
                    <mxGeometry x="576" y="1420" width="180" height="140" as="geometry"/>
                </mxCell>
                <mxCell id="hgGM4-Haj7C2qqy3yOSG-0" style="edgeStyle=orthogonalEdgeStyle;curved=0;rounded=1;sketch=0;orthogonalLoop=1;jettySize=auto;html=1;entryX=0.5;entryY=0;entryDx=0;entryDy=0;fontSize=15;" parent="WTVdDayBTQ0MTywDv6Mj-1" target="Lncw49TM1H4KjZ_BzUi1-1" edge="1">
                    <mxGeometry relative="1" as="geometry">
                        <mxPoint x="335" y="90" as="sourcePoint"/>
                        <mxPoint x="408.52" y="50" as="targetPoint"/>
                        <Array as="points">
                            <mxPoint x="335" y="120"/>
                            <mxPoint x="336" y="120"/>
                        </Array>
                    </mxGeometry>
                </mxCell>
                <mxCell id="hgGM4-Haj7C2qqy3yOSG-2" value="ДУ1" style="endArrow=classic;html=1;fontSize=12;entryX=0.5;entryY=0;entryDx=0;entryDy=0;exitX=0.5;exitY=1;exitDx=0;exitDy=0;" parent="WTVdDayBTQ0MTywDv6Mj-1" source="ORT3W6Ldf1Jf6fMb5snt-2" target="ORT3W6Ldf1Jf6fMb5snt-1" edge="1">
                    <mxGeometry relative="1" as="geometry">
                        <mxPoint x="440" y="200" as="sourcePoint"/>
                        <mxPoint x="440" y="240" as="targetPoint"/>
                        <Array as="points"/>
                    </mxGeometry>
                </mxCell>
                <mxCell id="mELa6HacjAUEjYhnBwNs-13" value="" style="endArrow=classic;html=1;fontSize=16;entryX=0.5;entryY=0;entryDx=0;entryDy=0;" parent="WTVdDayBTQ0MTywDv6Mj-1" target="M693_9Bd0WQ16jZkxc2S-2" edge="1">
                    <mxGeometry width="50" height="50" relative="1" as="geometry">
                        <mxPoint x="146" y="470" as="sourcePoint"/>
                        <mxPoint x="330" y="500" as="targetPoint"/>
                    </mxGeometry>
                </mxCell>
                <mxCell id="AK8rZdtDf_WaYn-44-G0-1" value="4. Таймер установлен" style="html=1;fillColor=#b1ddf0;strokeColor=#10739e;" parent="WTVdDayBTQ0MTywDv6Mj-1" vertex="1">
                    <mxGeometry x="-60" y="145" width="180" height="30" as="geometry"/>
                </mxCell>
                <mxCell id="AK8rZdtDf_WaYn-44-G0-4" value="&lt;b&gt;ДУ5: &lt;/b&gt;Установить таймер" style="text;html=1;align=left;verticalAlign=middle;resizable=0;points=[];autosize=1;" parent="WTVdDayBTQ0MTywDv6Mj-1" vertex="1">
                    <mxGeometry x="606" y="104" width="150" height="20" as="geometry"/>
                </mxCell>
                <mxCell id="AK8rZdtDf_WaYn-44-G0-5" value="" style="endArrow=classic;html=1;exitX=0;exitY=0.5;exitDx=0;exitDy=0;" parent="WTVdDayBTQ0MTywDv6Mj-1" source="b4PxU3jFzDO1NrmyhvWv-0" target="AK8rZdtDf_WaYn-44-G0-1" edge="1">
                    <mxGeometry width="50" height="50" relative="1" as="geometry">
                        <mxPoint x="110" y="280" as="sourcePoint"/>
                        <mxPoint x="-60" y="370" as="targetPoint"/>
                        <Array as="points">
                            <mxPoint x="30" y="362"/>
                        </Array>
                    </mxGeometry>
                </mxCell>
                <mxCell id="AK8rZdtDf_WaYn-44-G0-6" value="ДУ5" style="edgeLabel;html=1;align=center;verticalAlign=middle;resizable=0;points=[];" parent="AK8rZdtDf_WaYn-44-G0-5" vertex="1" connectable="0">
                    <mxGeometry x="0.1282" y="-4" relative="1" as="geometry">
                        <mxPoint as="offset"/>
                    </mxGeometry>
                </mxCell>
                <mxCell id="AK8rZdtDf_WaYn-44-G0-7" value="" style="endArrow=classic;html=1;entryX=0.5;entryY=0;entryDx=0;entryDy=0;" parent="WTVdDayBTQ0MTywDv6Mj-1" source="AK8rZdtDf_WaYn-44-G0-1" target="Lncw49TM1H4KjZ_BzUi1-3" edge="1">
                    <mxGeometry width="50" height="50" relative="1" as="geometry">
                        <mxPoint x="-80" y="370" as="sourcePoint"/>
                        <mxPoint x="495" y="180" as="targetPoint"/>
                        <Array as="points">
                            <mxPoint x="30" y="70"/>
                            <mxPoint x="495" y="70"/>
                        </Array>
                    </mxGeometry>
                </mxCell>
                <mxCell id="AK8rZdtDf_WaYn-44-G0-8" value="&lt;b&gt;ДУ6: &lt;/b&gt;Вышло время таймера" style="text;html=1;align=left;verticalAlign=middle;resizable=0;points=[];autosize=1;" parent="WTVdDayBTQ0MTywDv6Mj-1" vertex="1">
                    <mxGeometry x="606" y="124" width="170" height="20" as="geometry"/>
                </mxCell>
                <mxCell id="AK8rZdtDf_WaYn-44-G0-9" value="ДУ6" style="text;html=1;align=center;verticalAlign=middle;resizable=0;points=[];autosize=1;strokeColor=none;fillColor=none;" parent="WTVdDayBTQ0MTywDv6Mj-1" vertex="1">
                    <mxGeometry x="470" y="100" width="40" height="20" as="geometry"/>
                </mxCell>
                <mxCell id="cGjGamNWeR6H6u4lDEx0-0" value="" style="endArrow=classic;html=1;entryX=0.25;entryY=1;entryDx=0;entryDy=0;" parent="WTVdDayBTQ0MTywDv6Mj-1" source="AK8rZdtDf_WaYn-44-G0-1" target="AK8rZdtDf_WaYn-44-G0-1" edge="1">
                    <mxGeometry relative="1" as="geometry">
                        <mxPoint x="-110" y="280" as="sourcePoint"/>
                        <mxPoint x="-30" y="260" as="targetPoint"/>
                        <Array as="points">
                            <mxPoint x="-100" y="160"/>
                            <mxPoint x="-100" y="210"/>
                            <mxPoint x="-15" y="210"/>
                        </Array>
                    </mxGeometry>
                </mxCell>
                <mxCell id="cGjGamNWeR6H6u4lDEx0-1" value="ДУ5" style="edgeLabel;resizable=0;html=1;align=center;verticalAlign=middle;" parent="cGjGamNWeR6H6u4lDEx0-0" connectable="0" vertex="1">
                    <mxGeometry relative="1" as="geometry">
                        <mxPoint x="35" as="offset"/>
                    </mxGeometry>
                </mxCell>
                <mxCell id="cGjGamNWeR6H6u4lDEx0-4" value="ДУ7" style="endArrow=classic;html=1;entryX=0.25;entryY=1;entryDx=0;entryDy=0;exitX=0.298;exitY=1.044;exitDx=0;exitDy=0;exitPerimeter=0;" parent="WTVdDayBTQ0MTywDv6Mj-1" source="AK8rZdtDf_WaYn-44-G0-1" target="b4PxU3jFzDO1NrmyhvWv-0" edge="1">
                    <mxGeometry width="50" height="50" relative="1" as="geometry">
                        <mxPoint x="10" y="270" as="sourcePoint"/>
                        <mxPoint x="20" y="350" as="targetPoint"/>
                        <Array as="points">
                            <mxPoint x="-10" y="410"/>
                            <mxPoint x="115" y="410"/>
                        </Array>
                    </mxGeometry>
                </mxCell>
                <mxCell id="cGjGamNWeR6H6u4lDEx0-5" value="&lt;b&gt;ДУ7: &lt;/b&gt;Выключить таймер" style="text;html=1;align=left;verticalAlign=middle;resizable=0;points=[];autosize=1;" parent="WTVdDayBTQ0MTywDv6Mj-1" vertex="1">
                    <mxGeometry x="606" y="149" width="150" height="20" as="geometry"/>
                </mxCell>
                <mxCell id="c9cJ79obyKt5s65ZZfGW-0" style="edgeStyle=none;orthogonalLoop=1;jettySize=auto;html=1;fontSize=12;" parent="WTVdDayBTQ0MTywDv6Mj-1" source="AK8rZdtDf_WaYn-44-G0-1" target="Lncw49TM1H4KjZ_BzUi1-1" edge="1">
                    <mxGeometry relative="1" as="geometry">
                        <Array as="points"/>
                        <mxPoint x="170" y="300" as="sourcePoint"/>
                        <mxPoint x="280" y="170" as="targetPoint"/>
                    </mxGeometry>
                </mxCell>
                <mxCell id="c9cJ79obyKt5s65ZZfGW-1" value="ДУ2" style="edgeLabel;html=1;align=center;verticalAlign=middle;resizable=0;points=[];fontSize=12;" parent="c9cJ79obyKt5s65ZZfGW-0" vertex="1" connectable="0">
                    <mxGeometry x="-0.0778" y="-1" relative="1" as="geometry">
                        <mxPoint x="-46" y="4" as="offset"/>
                    </mxGeometry>
                </mxCell>
                <mxCell id="c9cJ79obyKt5s65ZZfGW-2" style="edgeStyle=none;orthogonalLoop=1;jettySize=auto;html=1;fontSize=12;" parent="WTVdDayBTQ0MTywDv6Mj-1" target="b4PxU3jFzDO1NrmyhvWv-0" edge="1">
                    <mxGeometry relative="1" as="geometry">
                        <mxPoint x="130" y="417" as="targetPoint"/>
                        <Array as="points">
                            <mxPoint x="200" y="397"/>
                            <mxPoint x="200" y="417"/>
                            <mxPoint x="130" y="417"/>
                            <mxPoint x="130" y="377"/>
                        </Array>
                        <mxPoint x="200" y="377" as="sourcePoint"/>
                    </mxGeometry>
                </mxCell>
                <mxCell id="c9cJ79obyKt5s65ZZfGW-3" value="ДУ3" style="edgeLabel;html=1;align=center;verticalAlign=middle;resizable=0;points=[];fontSize=12;" parent="c9cJ79obyKt5s65ZZfGW-2" vertex="1" connectable="0">
                    <mxGeometry x="-0.1655" y="-1" relative="1" as="geometry">
                        <mxPoint x="-4" y="1" as="offset"/>
                    </mxGeometry>
                </mxCell>
                <mxCell id="ORT3W6Ldf1Jf6fMb5snt-1" value="6. Готова ожить&amp;nbsp;" style="html=1;fillColor=#b1ddf0;strokeColor=#10739e;" vertex="1" parent="WTVdDayBTQ0MTywDv6Mj-1">
                    <mxGeometry x="357" y="250" width="131" height="30" as="geometry"/>
                </mxCell>
                <mxCell id="ORT3W6Ldf1Jf6fMb5snt-2" value="5. Готова включиться" style="html=1;fillColor=#b1ddf0;strokeColor=#10739e;" vertex="1" parent="WTVdDayBTQ0MTywDv6Mj-1">
                    <mxGeometry x="357" y="188" width="131" height="30" as="geometry"/>
                </mxCell>
                <mxCell id="kJHpcyjTLnTBF9pvqMxN-0" style="edgeStyle=orthogonalEdgeStyle;curved=0;rounded=1;sketch=0;orthogonalLoop=1;jettySize=auto;html=1;exitX=1;exitY=0.75;exitDx=0;exitDy=0;entryX=0.75;entryY=0;entryDx=0;entryDy=0;fontSize=15;" edge="1" parent="WTVdDayBTQ0MTywDv6Mj-1" source="Lncw49TM1H4KjZ_BzUi1-1" target="ORT3W6Ldf1Jf6fMb5snt-2">
                    <mxGeometry relative="1" as="geometry">
                        <Array as="points">
                            <mxPoint x="423" y="167"/>
                            <mxPoint x="455" y="167"/>
                            <mxPoint x="455" y="188"/>
                        </Array>
                        <mxPoint x="537.25" y="319" as="sourcePoint"/>
                        <mxPoint x="411" y="162.5" as="targetPoint"/>
                    </mxGeometry>
                </mxCell>
                <mxCell id="kJHpcyjTLnTBF9pvqMxN-2" value="ДУ8" style="edgeLabel;html=1;align=center;verticalAlign=middle;resizable=0;points=[];" vertex="1" connectable="0" parent="kJHpcyjTLnTBF9pvqMxN-0">
                    <mxGeometry x="-0.2256" y="-1" relative="1" as="geometry">
                        <mxPoint as="offset"/>
                    </mxGeometry>
                </mxCell>
                <mxCell id="kJHpcyjTLnTBF9pvqMxN-3" value="&lt;b&gt;ДУ8: &lt;/b&gt;Получить запрос на включение" style="text;html=1;align=left;verticalAlign=middle;resizable=0;points=[];autosize=1;" vertex="1" parent="WTVdDayBTQ0MTywDv6Mj-1">
                    <mxGeometry x="606" y="169" width="220" height="20" as="geometry"/>
                </mxCell>
                <mxCell id="kJHpcyjTLnTBF9pvqMxN-4" value="ДУ9" style="endArrow=classic;html=1;fontSize=12;entryX=0.25;entryY=0;entryDx=0;entryDy=0;exitX=0.75;exitY=1;exitDx=0;exitDy=0;" edge="1" parent="WTVdDayBTQ0MTywDv6Mj-1" source="ORT3W6Ldf1Jf6fMb5snt-1" target="Lncw49TM1H4KjZ_BzUi1-3">
                    <mxGeometry relative="1" as="geometry">
                        <mxPoint x="432.5" y="228" as="sourcePoint"/>
                        <mxPoint x="432.5" y="260" as="targetPoint"/>
                        <Array as="points"/>
                    </mxGeometry>
                </mxCell>
                <mxCell id="kJHpcyjTLnTBF9pvqMxN-5" value="&lt;b&gt;ДУ9: &lt;/b&gt;Подготовить к включению&lt;br&gt;&amp;nbsp; &amp;nbsp; &amp;nbsp; &amp;nbsp; &amp;nbsp;все компоненты" style="text;html=1;align=left;verticalAlign=middle;resizable=0;points=[];autosize=1;" vertex="1" parent="WTVdDayBTQ0MTywDv6Mj-1">
                    <mxGeometry x="606" y="189" width="190" height="30" as="geometry"/>
                </mxCell>
                <mxCell id="Dr6mxizoxTs1jrSbOc0r-6" style="edgeStyle=orthogonalEdgeStyle;rounded=0;orthogonalLoop=1;jettySize=auto;html=1;exitX=0.5;exitY=0;exitDx=0;exitDy=0;startArrow=classic;startFill=1;endArrow=none;endFill=0;" edge="1" parent="WTVdDayBTQ0MTywDv6Mj-1" source="Dr6mxizoxTs1jrSbOc0r-7">
                    <mxGeometry relative="1" as="geometry">
                        <mxPoint x="627.5" y="460" as="targetPoint"/>
                    </mxGeometry>
                </mxCell>
                <mxCell id="Dr6mxizoxTs1jrSbOc0r-7" value="1. Выключен" style="html=1;fillColor=#b1ddf0;strokeColor=#10739e;" vertex="1" parent="WTVdDayBTQ0MTywDv6Mj-1">
                    <mxGeometry x="572" y="510" width="110" height="30" as="geometry"/>
                </mxCell>
                <mxCell id="Dr6mxizoxTs1jrSbOc0r-8" style="edgeStyle=orthogonalEdgeStyle;rounded=0;orthogonalLoop=1;jettySize=auto;html=1;exitX=0.75;exitY=0;exitDx=0;exitDy=0;entryX=0.75;entryY=1;entryDx=0;entryDy=0;startArrow=none;startFill=0;endArrow=classic;endFill=1;" edge="1" parent="WTVdDayBTQ0MTywDv6Mj-1" source="Dr6mxizoxTs1jrSbOc0r-10" target="Dr6mxizoxTs1jrSbOc0r-7">
                    <mxGeometry relative="1" as="geometry">
                        <Array as="points">
                            <mxPoint x="655" y="590"/>
                            <mxPoint x="655" y="590"/>
                        </Array>
                    </mxGeometry>
                </mxCell>
                <mxCell id="Dr6mxizoxTs1jrSbOc0r-9" value="Н2" style="edgeLabel;html=1;align=center;verticalAlign=middle;resizable=0;points=[];" vertex="1" connectable="0" parent="Dr6mxizoxTs1jrSbOc0r-8">
                    <mxGeometry x="0.0922" y="1" relative="1" as="geometry">
                        <mxPoint x="10" y="7" as="offset"/>
                    </mxGeometry>
                </mxCell>
                <mxCell id="Dr6mxizoxTs1jrSbOc0r-10" value="2. Включен" style="html=1;fillColor=#b1ddf0;strokeColor=#10739e;" vertex="1" parent="WTVdDayBTQ0MTywDv6Mj-1">
                    <mxGeometry x="572" y="610" width="110" height="30" as="geometry"/>
                </mxCell>
                <mxCell id="Dr6mxizoxTs1jrSbOc0r-11" value="&lt;b&gt;Н1: &lt;/b&gt;Начать нагрев" style="text;html=1;align=left;verticalAlign=middle;resizable=0;points=[];autosize=1;" vertex="1" parent="WTVdDayBTQ0MTywDv6Mj-1">
                    <mxGeometry x="664.25" y="687.5" width="120" height="20" as="geometry"/>
                </mxCell>
                <mxCell id="Dr6mxizoxTs1jrSbOc0r-12" value="&lt;b&gt;Н2: &lt;/b&gt;Остановить нагрев" style="text;html=1;align=left;verticalAlign=middle;resizable=0;points=[];autosize=1;" vertex="1" parent="WTVdDayBTQ0MTywDv6Mj-1">
                    <mxGeometry x="663.75" y="707.5" width="140" height="20" as="geometry"/>
                </mxCell>
                <mxCell id="Dr6mxizoxTs1jrSbOc0r-13" value="&lt;table border=&quot;1&quot; width=&quot;100%&quot; style=&quot;width: 100% ; height: 100% ; border-collapse: collapse&quot;&gt;&lt;tbody&gt;&lt;tr&gt;&lt;td&gt;&lt;b&gt;№&lt;/b&gt;&lt;/td&gt;&lt;td&gt;&lt;b&gt;Н1&lt;/b&gt;&lt;/td&gt;&lt;td&gt;&lt;b&gt;Н2&lt;/b&gt;&lt;/td&gt;&lt;td&gt;&lt;b&gt;Н3&lt;/b&gt;&lt;/td&gt;&lt;/tr&gt;&lt;tr&gt;&lt;td&gt;&lt;b&gt;1&lt;/b&gt;&lt;/td&gt;&lt;td&gt;-&lt;/td&gt;&lt;td&gt;-&lt;/td&gt;&lt;td&gt;3&lt;/td&gt;&lt;/tr&gt;&lt;tr&gt;&lt;td&gt;&lt;b&gt;2&lt;/b&gt;&lt;/td&gt;&lt;td&gt;-&lt;/td&gt;&lt;td&gt;1&lt;/td&gt;&lt;td&gt;-&lt;/td&gt;&lt;/tr&gt;&lt;tr&gt;&lt;td&gt;&lt;b&gt;3&lt;/b&gt;&lt;/td&gt;&lt;td&gt;2&lt;/td&gt;&lt;td&gt;-&lt;/td&gt;&lt;td&gt;-&lt;/td&gt;&lt;/tr&gt;&lt;/tbody&gt;&lt;/table&gt;" style="text;html=1;strokeColor=none;fillColor=none;overflow=fill;align=center;" vertex="1" parent="WTVdDayBTQ0MTywDv6Mj-1">
                    <mxGeometry x="505.25" y="680" width="112.5" height="67.5" as="geometry"/>
                </mxCell>
                <mxCell id="Dr6mxizoxTs1jrSbOc0r-14" value="3. Готов нагревать" style="html=1;fillColor=#b1ddf0;strokeColor=#10739e;" vertex="1" parent="WTVdDayBTQ0MTywDv6Mj-1">
                    <mxGeometry x="450" y="555" width="110" height="30" as="geometry"/>
                </mxCell>
                <mxCell id="Dr6mxizoxTs1jrSbOc0r-15" value="" style="endArrow=classic;html=1;entryX=0.5;entryY=0;entryDx=0;entryDy=0;exitX=0;exitY=0.5;exitDx=0;exitDy=0;" edge="1" parent="WTVdDayBTQ0MTywDv6Mj-1" source="Dr6mxizoxTs1jrSbOc0r-7" target="Dr6mxizoxTs1jrSbOc0r-14">
                    <mxGeometry width="50" height="50" relative="1" as="geometry">
                        <mxPoint x="460" y="550" as="sourcePoint"/>
                        <mxPoint x="510" y="500" as="targetPoint"/>
                        <Array as="points">
                            <mxPoint x="505" y="525"/>
                        </Array>
                    </mxGeometry>
                </mxCell>
                <mxCell id="Dr6mxizoxTs1jrSbOc0r-16" value="Н3" style="edgeLabel;html=1;align=center;verticalAlign=middle;resizable=0;points=[];" vertex="1" connectable="0" parent="Dr6mxizoxTs1jrSbOc0r-15">
                    <mxGeometry x="-0.0076" y="1" relative="1" as="geometry">
                        <mxPoint as="offset"/>
                    </mxGeometry>
                </mxCell>
                <mxCell id="Dr6mxizoxTs1jrSbOc0r-17" value="" style="endArrow=classic;html=1;exitX=0.5;exitY=1;exitDx=0;exitDy=0;entryX=0;entryY=0.5;entryDx=0;entryDy=0;" edge="1" parent="WTVdDayBTQ0MTywDv6Mj-1" source="Dr6mxizoxTs1jrSbOc0r-14" target="Dr6mxizoxTs1jrSbOc0r-10">
                    <mxGeometry width="50" height="50" relative="1" as="geometry">
                        <mxPoint x="510" y="630" as="sourcePoint"/>
                        <mxPoint x="560" y="580" as="targetPoint"/>
                        <Array as="points">
                            <mxPoint x="505" y="625"/>
                        </Array>
                    </mxGeometry>
                </mxCell>
                <mxCell id="Dr6mxizoxTs1jrSbOc0r-18" value="Н1" style="edgeLabel;html=1;align=center;verticalAlign=middle;resizable=0;points=[];" vertex="1" connectable="0" parent="Dr6mxizoxTs1jrSbOc0r-17">
                    <mxGeometry x="0.1452" y="-2" relative="1" as="geometry">
                        <mxPoint as="offset"/>
                    </mxGeometry>
                </mxCell>
                <mxCell id="Dr6mxizoxTs1jrSbOc0r-19" value="&lt;b&gt;Н2: &lt;/b&gt;Подан сигнал к готовности" style="text;html=1;align=left;verticalAlign=middle;resizable=0;points=[];autosize=1;" vertex="1" parent="WTVdDayBTQ0MTywDv6Mj-1">
                    <mxGeometry x="664.25" y="727.5" width="190" height="20" as="geometry"/>
                </mxCell>
                <mxCell id="Dr6mxizoxTs1jrSbOc0r-20" style="edgeStyle=orthogonalEdgeStyle;rounded=0;orthogonalLoop=1;jettySize=auto;html=1;exitX=0.5;exitY=0;exitDx=0;exitDy=0;startArrow=classic;startFill=1;endArrow=none;endFill=0;" edge="1" parent="WTVdDayBTQ0MTywDv6Mj-1" source="Dr6mxizoxTs1jrSbOc0r-21">
                    <mxGeometry relative="1" as="geometry">
                        <mxPoint x="475.5" y="813" as="targetPoint"/>
                    </mxGeometry>
                </mxCell>
                <mxCell id="Dr6mxizoxTs1jrSbOc0r-21" value="1. Не установлен" style="html=1;fillColor=#b1ddf0;strokeColor=#10739e;" vertex="1" parent="WTVdDayBTQ0MTywDv6Mj-1">
                    <mxGeometry x="420" y="863" width="110" height="30" as="geometry"/>
                </mxCell>
                <mxCell id="Dr6mxizoxTs1jrSbOc0r-22" style="edgeStyle=orthogonalEdgeStyle;rounded=0;orthogonalLoop=1;jettySize=auto;html=1;exitX=0.75;exitY=0;exitDx=0;exitDy=0;entryX=0.75;entryY=1;entryDx=0;entryDy=0;startArrow=none;startFill=0;endArrow=classic;endFill=1;" edge="1" parent="WTVdDayBTQ0MTywDv6Mj-1" source="Dr6mxizoxTs1jrSbOc0r-24" target="Dr6mxizoxTs1jrSbOc0r-21">
                    <mxGeometry relative="1" as="geometry">
                        <Array as="points">
                            <mxPoint x="503" y="943"/>
                            <mxPoint x="503" y="943"/>
                        </Array>
                    </mxGeometry>
                </mxCell>
                <mxCell id="Dr6mxizoxTs1jrSbOc0r-23" value="РТ2" style="edgeLabel;html=1;align=center;verticalAlign=middle;resizable=0;points=[];" vertex="1" connectable="0" parent="Dr6mxizoxTs1jrSbOc0r-22">
                    <mxGeometry x="0.0922" y="1" relative="1" as="geometry">
                        <mxPoint x="10" y="7" as="offset"/>
                    </mxGeometry>
                </mxCell>
                <mxCell id="Dr6mxizoxTs1jrSbOc0r-24" value="2. Установлен" style="html=1;fillColor=#b1ddf0;strokeColor=#10739e;" vertex="1" parent="WTVdDayBTQ0MTywDv6Mj-1">
                    <mxGeometry x="420" y="963" width="110" height="30" as="geometry"/>
                </mxCell>
                <mxCell id="Dr6mxizoxTs1jrSbOc0r-25" value="&lt;b&gt;РТ1: &lt;/b&gt;Температура сброшена" style="text;html=1;align=left;verticalAlign=middle;resizable=0;points=[];autosize=1;" vertex="1" parent="WTVdDayBTQ0MTywDv6Mj-1">
                    <mxGeometry x="512.25" y="1040.5" width="180" height="20" as="geometry"/>
                </mxCell>
                <mxCell id="Dr6mxizoxTs1jrSbOc0r-26" value="&lt;b&gt;РТ2:&lt;/b&gt; Температура выбрана" style="text;html=1;align=left;verticalAlign=middle;resizable=0;points=[];autosize=1;" vertex="1" parent="WTVdDayBTQ0MTywDv6Mj-1">
                    <mxGeometry x="511.75" y="1060.5" width="170" height="20" as="geometry"/>
                </mxCell>
                <mxCell id="Dr6mxizoxTs1jrSbOc0r-27" value="&lt;table border=&quot;1&quot; width=&quot;100%&quot; style=&quot;width: 100% ; height: 100% ; border-collapse: collapse&quot;&gt;&lt;tbody&gt;&lt;tr&gt;&lt;td&gt;&lt;b&gt;№&lt;/b&gt;&lt;/td&gt;&lt;td&gt;&lt;b&gt;РТ1&lt;/b&gt;&lt;/td&gt;&lt;td&gt;&lt;b&gt;РТ2&lt;/b&gt;&lt;/td&gt;&lt;td&gt;&lt;b&gt;РТ3&lt;/b&gt;&lt;/td&gt;&lt;/tr&gt;&lt;tr&gt;&lt;td&gt;&lt;b&gt;1&lt;/b&gt;&lt;/td&gt;&lt;td&gt;-&lt;/td&gt;&lt;td&gt;-&lt;/td&gt;&lt;td&gt;3&lt;/td&gt;&lt;/tr&gt;&lt;tr&gt;&lt;td&gt;&lt;b&gt;2&lt;/b&gt;&lt;/td&gt;&lt;td&gt;-&lt;/td&gt;&lt;td&gt;1&lt;/td&gt;&lt;td&gt;-&lt;/td&gt;&lt;/tr&gt;&lt;tr&gt;&lt;td&gt;&lt;b&gt;3&lt;/b&gt;&lt;/td&gt;&lt;td&gt;2&lt;/td&gt;&lt;td&gt;-&lt;/td&gt;&lt;td&gt;-&lt;/td&gt;&lt;/tr&gt;&lt;/tbody&gt;&lt;/table&gt;" style="text;html=1;strokeColor=none;fillColor=none;overflow=fill;align=center;" vertex="1" parent="WTVdDayBTQ0MTywDv6Mj-1">
                    <mxGeometry x="353.25" y="1033" width="112.5" height="67.5" as="geometry"/>
                </mxCell>
                <mxCell id="Dr6mxizoxTs1jrSbOc0r-28" value="3. Готово к установлению" style="html=1;fillColor=#b1ddf0;strokeColor=#10739e;" vertex="1" parent="WTVdDayBTQ0MTywDv6Mj-1">
                    <mxGeometry x="270" y="908" width="170" height="30" as="geometry"/>
                </mxCell>
                <mxCell id="Dr6mxizoxTs1jrSbOc0r-29" value="" style="endArrow=classic;html=1;entryX=0.5;entryY=0;entryDx=0;entryDy=0;exitX=0;exitY=0.5;exitDx=0;exitDy=0;" edge="1" parent="WTVdDayBTQ0MTywDv6Mj-1" source="Dr6mxizoxTs1jrSbOc0r-21" target="Dr6mxizoxTs1jrSbOc0r-28">
                    <mxGeometry width="50" height="50" relative="1" as="geometry">
                        <mxPoint x="308" y="903" as="sourcePoint"/>
                        <mxPoint x="358" y="853" as="targetPoint"/>
                        <Array as="points">
                            <mxPoint x="353" y="878"/>
                        </Array>
                    </mxGeometry>
                </mxCell>
                <mxCell id="Dr6mxizoxTs1jrSbOc0r-30" value="РТ3" style="edgeLabel;html=1;align=center;verticalAlign=middle;resizable=0;points=[];" vertex="1" connectable="0" parent="Dr6mxizoxTs1jrSbOc0r-29">
                    <mxGeometry x="-0.0076" y="1" relative="1" as="geometry">
                        <mxPoint as="offset"/>
                    </mxGeometry>
                </mxCell>
                <mxCell id="Dr6mxizoxTs1jrSbOc0r-31" value="" style="endArrow=classic;html=1;exitX=0.5;exitY=1;exitDx=0;exitDy=0;entryX=0;entryY=0.5;entryDx=0;entryDy=0;" edge="1" parent="WTVdDayBTQ0MTywDv6Mj-1" source="Dr6mxizoxTs1jrSbOc0r-28" target="Dr6mxizoxTs1jrSbOc0r-24">
                    <mxGeometry width="50" height="50" relative="1" as="geometry">
                        <mxPoint x="358" y="983" as="sourcePoint"/>
                        <mxPoint x="408" y="933" as="targetPoint"/>
                        <Array as="points">
                            <mxPoint x="353" y="978"/>
                        </Array>
                    </mxGeometry>
                </mxCell>
                <mxCell id="Dr6mxizoxTs1jrSbOc0r-32" value="РТ1" style="edgeLabel;html=1;align=center;verticalAlign=middle;resizable=0;points=[];" vertex="1" connectable="0" parent="Dr6mxizoxTs1jrSbOc0r-31">
                    <mxGeometry x="0.1452" y="-2" relative="1" as="geometry">
                        <mxPoint as="offset"/>
                    </mxGeometry>
                </mxCell>
                <mxCell id="Dr6mxizoxTs1jrSbOc0r-33" value="&lt;b&gt;РТ3: &lt;/b&gt;Подан сигнал к готовности" style="text;html=1;align=left;verticalAlign=middle;resizable=0;points=[];autosize=1;" vertex="1" parent="WTVdDayBTQ0MTywDv6Mj-1">
                    <mxGeometry x="512.25" y="1080.5" width="190" height="20" as="geometry"/>
                </mxCell>
                <mxCell id="74Ec0x3gN9fOjXmGFezk-1" value="" style="endArrow=classic;html=1;exitX=0.75;exitY=0;exitDx=0;exitDy=0;entryX=0;entryY=0.5;entryDx=0;entryDy=0;" edge="1" parent="WTVdDayBTQ0MTywDv6Mj-1" source="ed72BDYkx698F_OWr5iG-4" target="74Ec0x3gN9fOjXmGFezk-2">
                    <mxGeometry width="50" height="50" relative="1" as="geometry">
                        <mxPoint x="250" y="1300" as="sourcePoint"/>
                        <mxPoint x="230" y="1290" as="targetPoint"/>
                        <Array as="points">
                            <mxPoint x="190" y="1295"/>
                        </Array>
                    </mxGeometry>
                </mxCell>
                <mxCell id="74Ec0x3gN9fOjXmGFezk-4" value="ТМ5" style="edgeLabel;html=1;align=center;verticalAlign=middle;resizable=0;points=[];" vertex="1" connectable="0" parent="74Ec0x3gN9fOjXmGFezk-1">
                    <mxGeometry x="-0.1901" y="1" relative="1" as="geometry">
                        <mxPoint as="offset"/>
                    </mxGeometry>
                </mxCell>
                <mxCell id="74Ec0x3gN9fOjXmGFezk-2" value="5. Готово к вводу" style="html=1;fillColor=#b1ddf0;strokeColor=#10739e;" vertex="1" parent="WTVdDayBTQ0MTywDv6Mj-1">
                    <mxGeometry x="229.5" y="1280" width="110" height="30" as="geometry"/>
                </mxCell>
                <mxCell id="74Ec0x3gN9fOjXmGFezk-3" value="ТМ1" style="endArrow=classic;html=1;exitX=1;exitY=0.5;exitDx=0;exitDy=0;entryX=0;entryY=0;entryDx=0;entryDy=0;" edge="1" parent="WTVdDayBTQ0MTywDv6Mj-1" source="74Ec0x3gN9fOjXmGFezk-2" target="ed72BDYkx698F_OWr5iG-7">
                    <mxGeometry width="50" height="50" relative="1" as="geometry">
                        <mxPoint x="370" y="1290" as="sourcePoint"/>
                        <mxPoint x="380" y="1295" as="targetPoint"/>
                        <Array as="points">
                            <mxPoint x="357" y="1295"/>
                        </Array>
                    </mxGeometry>
                </mxCell>
                <mxCell id="74Ec0x3gN9fOjXmGFezk-5" value="&lt;b&gt;ТМ5: &lt;/b&gt;Подача сигнала к готовности" style="text;html=1;align=left;verticalAlign=middle;resizable=0;points=[];autosize=1;" vertex="1" parent="WTVdDayBTQ0MTywDv6Mj-1">
                    <mxGeometry x="584.5" y="1380" width="210" height="20" as="geometry"/>
                </mxCell>
            </root>
        </mxGraphModel>
    </diagram>
    <diagram id="IZBmKjR_Iy8mEDrNJ0xb" name="Духовка ДПДД">
        <mxGraphModel dx="734" dy="430" grid="1" gridSize="10" guides="1" tooltips="1" connect="1" arrows="1" fold="1" page="1" pageScale="1" pageWidth="827" pageHeight="1169" math="0" shadow="0">
            <root>
                <mxCell id="GJAqLuctV7d4QnNTkr7x-0"/>
                <mxCell id="GJAqLuctV7d4QnNTkr7x-1" parent="GJAqLuctV7d4QnNTkr7x-0"/>
                <mxCell id="7bLTO_sqb5uxfx4sEJJa-0" value="&lt;b&gt;Духовка&lt;/b&gt;" style="text;html=1;align=center;verticalAlign=middle;resizable=0;points=[];autosize=1;fillColor=#dae8fc;strokeColor=#6c8ebf;" parent="GJAqLuctV7d4QnNTkr7x-1" vertex="1">
                    <mxGeometry x="162" y="29" width="60" height="20" as="geometry"/>
                </mxCell>
                <mxCell id="7bLTO_sqb5uxfx4sEJJa-2" value="" style="endArrow=classic;html=1;" parent="GJAqLuctV7d4QnNTkr7x-1" edge="1">
                    <mxGeometry width="50" height="50" relative="1" as="geometry">
                        <mxPoint x="191.875" y="49" as="sourcePoint"/>
                        <mxPoint x="192" y="109" as="targetPoint"/>
                    </mxGeometry>
                </mxCell>
                <mxCell id="7bLTO_sqb5uxfx4sEJJa-3" value="Состояние" style="edgeLabel;html=1;align=center;verticalAlign=middle;resizable=0;points=[];" parent="7bLTO_sqb5uxfx4sEJJa-2" vertex="1" connectable="0">
                    <mxGeometry x="0.411" y="-2" relative="1" as="geometry">
                        <mxPoint x="2" y="-22" as="offset"/>
                    </mxGeometry>
                </mxCell>
                <mxCell id="7bLTO_sqb5uxfx4sEJJa-16" value="" style="edgeStyle=none;html=1;" parent="GJAqLuctV7d4QnNTkr7x-1" source="7bLTO_sqb5uxfx4sEJJa-4" target="7bLTO_sqb5uxfx4sEJJa-8" edge="1">
                    <mxGeometry relative="1" as="geometry"/>
                </mxCell>
                <mxCell id="7bLTO_sqb5uxfx4sEJJa-4" value="Прочитать состояние" style="ellipse;whiteSpace=wrap;html=1;fillColor=#dae8fc;strokeColor=#6c8ebf;" parent="GJAqLuctV7d4QnNTkr7x-1" vertex="1">
                    <mxGeometry x="146.5" y="109" width="91" height="40" as="geometry"/>
                </mxCell>
                <mxCell id="7bLTO_sqb5uxfx4sEJJa-6" value="" style="endArrow=classic;html=1;" parent="GJAqLuctV7d4QnNTkr7x-1" source="7bLTO_sqb5uxfx4sEJJa-4" edge="1">
                    <mxGeometry width="50" height="50" relative="1" as="geometry">
                        <mxPoint x="201.875" y="59" as="sourcePoint"/>
                        <mxPoint x="192" y="189" as="targetPoint"/>
                    </mxGeometry>
                </mxCell>
                <mxCell id="7bLTO_sqb5uxfx4sEJJa-7" value="Состояние" style="edgeLabel;html=1;align=center;verticalAlign=middle;resizable=0;points=[];" parent="7bLTO_sqb5uxfx4sEJJa-6" vertex="1" connectable="0">
                    <mxGeometry x="0.411" y="-2" relative="1" as="geometry">
                        <mxPoint x="2" y="-8" as="offset"/>
                    </mxGeometry>
                </mxCell>
                <mxCell id="7bLTO_sqb5uxfx4sEJJa-8" value="Проверить текущее состояние духовки" style="ellipse;whiteSpace=wrap;html=1;fillColor=#dae8fc;strokeColor=#6c8ebf;" parent="GJAqLuctV7d4QnNTkr7x-1" vertex="1">
                    <mxGeometry x="128.75" y="189" width="126.5" height="50" as="geometry"/>
                </mxCell>
                <mxCell id="7bLTO_sqb5uxfx4sEJJa-10" value="" style="endArrow=classic;html=1;entryX=0;entryY=0;entryDx=0;entryDy=0;" parent="GJAqLuctV7d4QnNTkr7x-1" edge="1">
                    <mxGeometry width="50" height="50" relative="1" as="geometry">
                        <mxPoint x="40" y="110" as="sourcePoint"/>
                        <mxPoint x="128.75414697664564" y="216.28735991136728" as="targetPoint"/>
                    </mxGeometry>
                </mxCell>
                <mxCell id="7bLTO_sqb5uxfx4sEJJa-11" value="Выбор определенной&lt;br&gt;температуры" style="edgeLabel;html=1;align=center;verticalAlign=middle;resizable=0;points=[];" parent="7bLTO_sqb5uxfx4sEJJa-10" vertex="1" connectable="0">
                    <mxGeometry x="0.411" y="-2" relative="1" as="geometry">
                        <mxPoint x="-10" y="-26" as="offset"/>
                    </mxGeometry>
                </mxCell>
                <mxCell id="7bLTO_sqb5uxfx4sEJJa-12" value="" style="endArrow=classic;html=1;dashed=1;" parent="GJAqLuctV7d4QnNTkr7x-1" source="7bLTO_sqb5uxfx4sEJJa-8" target="y_Y_A98wna_7HS-Qj-T9-11" edge="1">
                    <mxGeometry width="50" height="50" relative="1" as="geometry">
                        <mxPoint x="191.5" y="319" as="sourcePoint"/>
                        <mxPoint x="192" y="379" as="targetPoint"/>
                    </mxGeometry>
                </mxCell>
                <mxCell id="7bLTO_sqb5uxfx4sEJJa-13" value="Духовка в состоянии режима ожидания" style="edgeLabel;html=1;align=center;verticalAlign=middle;resizable=0;points=[];" parent="7bLTO_sqb5uxfx4sEJJa-12" vertex="1" connectable="0">
                    <mxGeometry x="0.411" y="-2" relative="1" as="geometry">
                        <mxPoint x="2" y="-11" as="offset"/>
                    </mxGeometry>
                </mxCell>
                <mxCell id="7bLTO_sqb5uxfx4sEJJa-20" value="Переход в состояние процесса приготовления" style="ellipse;whiteSpace=wrap;html=1;fillColor=#dae8fc;strokeColor=#6c8ebf;" parent="GJAqLuctV7d4QnNTkr7x-1" vertex="1">
                    <mxGeometry x="128.75" y="360" width="126.5" height="61" as="geometry"/>
                </mxCell>
                <mxCell id="y_Y_A98wna_7HS-Qj-T9-0" value="" style="endArrow=classic;html=1;entryX=0;entryY=0.5;entryDx=0;entryDy=0;" parent="GJAqLuctV7d4QnNTkr7x-1" target="Ja1Qfo0HMrVpdXDLE0HL-2" edge="1">
                    <mxGeometry width="50" height="50" relative="1" as="geometry">
                        <mxPoint x="38" y="390" as="sourcePoint"/>
                        <mxPoint x="236.63585302335423" y="462.2873599113673" as="targetPoint"/>
                    </mxGeometry>
                </mxCell>
                <mxCell id="y_Y_A98wna_7HS-Qj-T9-1" value="Установка времени&lt;br&gt;на таймере" style="edgeLabel;html=1;align=center;verticalAlign=middle;resizable=0;points=[];" parent="y_Y_A98wna_7HS-Qj-T9-0" vertex="1" connectable="0">
                    <mxGeometry x="0.411" y="-2" relative="1" as="geometry">
                        <mxPoint x="-31" y="-23" as="offset"/>
                    </mxGeometry>
                </mxCell>
                <mxCell id="y_Y_A98wna_7HS-Qj-T9-9" value="" style="endArrow=classic;html=1;entryX=0.5;entryY=0;entryDx=0;entryDy=0;" parent="GJAqLuctV7d4QnNTkr7x-1" source="y_Y_A98wna_7HS-Qj-T9-11" target="7bLTO_sqb5uxfx4sEJJa-20" edge="1">
                    <mxGeometry width="50" height="50" relative="1" as="geometry">
                        <mxPoint x="191.59017253772254" y="334.99947519892885" as="sourcePoint"/>
                        <mxPoint x="202" y="295" as="targetPoint"/>
                        <Array as="points"/>
                    </mxGeometry>
                </mxCell>
                <mxCell id="y_Y_A98wna_7HS-Qj-T9-10" value="" style="endArrow=classic;html=1;entryX=0.5;entryY=0;entryDx=0;entryDy=0;" parent="GJAqLuctV7d4QnNTkr7x-1" source="7bLTO_sqb5uxfx4sEJJa-20" target="Ja1Qfo0HMrVpdXDLE0HL-2" edge="1">
                    <mxGeometry width="50" height="50" relative="1" as="geometry">
                        <mxPoint x="201.59017253772254" y="344.99947519892885" as="sourcePoint"/>
                        <mxPoint x="192" y="455" as="targetPoint"/>
                        <Array as="points"/>
                    </mxGeometry>
                </mxCell>
                <mxCell id="y_Y_A98wna_7HS-Qj-T9-11" value="Включить нагреватель" style="ellipse;whiteSpace=wrap;html=1;fillColor=#dae8fc;strokeColor=#6c8ebf;" parent="GJAqLuctV7d4QnNTkr7x-1" vertex="1">
                    <mxGeometry x="128.75" y="284" width="126.5" height="50" as="geometry"/>
                </mxCell>
                <mxCell id="y_Y_A98wna_7HS-Qj-T9-12" value="&lt;b&gt;Духовка&lt;/b&gt;" style="text;html=1;align=center;verticalAlign=middle;resizable=0;points=[];autosize=1;fillColor=#dae8fc;strokeColor=#6c8ebf;" parent="GJAqLuctV7d4QnNTkr7x-1" vertex="1">
                    <mxGeometry x="577.25" y="29" width="60" height="20" as="geometry"/>
                </mxCell>
                <mxCell id="y_Y_A98wna_7HS-Qj-T9-13" value="" style="endArrow=classic;html=1;" parent="GJAqLuctV7d4QnNTkr7x-1" edge="1">
                    <mxGeometry width="50" height="50" relative="1" as="geometry">
                        <mxPoint x="607.125" y="49" as="sourcePoint"/>
                        <mxPoint x="607.25" y="109" as="targetPoint"/>
                    </mxGeometry>
                </mxCell>
                <mxCell id="y_Y_A98wna_7HS-Qj-T9-14" value="Состояние" style="edgeLabel;html=1;align=center;verticalAlign=middle;resizable=0;points=[];" parent="y_Y_A98wna_7HS-Qj-T9-13" vertex="1" connectable="0">
                    <mxGeometry x="0.411" y="-2" relative="1" as="geometry">
                        <mxPoint x="2" y="-22" as="offset"/>
                    </mxGeometry>
                </mxCell>
                <mxCell id="y_Y_A98wna_7HS-Qj-T9-15" value="" style="edgeStyle=none;html=1;" parent="GJAqLuctV7d4QnNTkr7x-1" source="y_Y_A98wna_7HS-Qj-T9-16" target="y_Y_A98wna_7HS-Qj-T9-19" edge="1">
                    <mxGeometry relative="1" as="geometry"/>
                </mxCell>
                <mxCell id="y_Y_A98wna_7HS-Qj-T9-16" value="Прочитать состояние" style="ellipse;whiteSpace=wrap;html=1;fillColor=#dae8fc;strokeColor=#6c8ebf;" parent="GJAqLuctV7d4QnNTkr7x-1" vertex="1">
                    <mxGeometry x="561.75" y="109" width="91" height="40" as="geometry"/>
                </mxCell>
                <mxCell id="y_Y_A98wna_7HS-Qj-T9-17" value="" style="endArrow=classic;html=1;" parent="GJAqLuctV7d4QnNTkr7x-1" source="y_Y_A98wna_7HS-Qj-T9-16" edge="1">
                    <mxGeometry width="50" height="50" relative="1" as="geometry">
                        <mxPoint x="617.125" y="59" as="sourcePoint"/>
                        <mxPoint x="607.25" y="189" as="targetPoint"/>
                    </mxGeometry>
                </mxCell>
                <mxCell id="y_Y_A98wna_7HS-Qj-T9-18" value="Состояние" style="edgeLabel;html=1;align=center;verticalAlign=middle;resizable=0;points=[];" parent="y_Y_A98wna_7HS-Qj-T9-17" vertex="1" connectable="0">
                    <mxGeometry x="0.411" y="-2" relative="1" as="geometry">
                        <mxPoint x="2" y="-8" as="offset"/>
                    </mxGeometry>
                </mxCell>
                <mxCell id="y_Y_A98wna_7HS-Qj-T9-19" value="Проверить текущее состояние духовки" style="ellipse;whiteSpace=wrap;html=1;fillColor=#dae8fc;strokeColor=#6c8ebf;" parent="GJAqLuctV7d4QnNTkr7x-1" vertex="1">
                    <mxGeometry x="544" y="189" width="126.5" height="50" as="geometry"/>
                </mxCell>
                <mxCell id="y_Y_A98wna_7HS-Qj-T9-20" value="" style="endArrow=classic;html=1;" parent="GJAqLuctV7d4QnNTkr7x-1" target="y_Y_A98wna_7HS-Qj-T9-19" edge="1">
                    <mxGeometry width="50" height="50" relative="1" as="geometry">
                        <mxPoint x="738.25" y="69" as="sourcePoint"/>
                        <mxPoint x="617.25" y="199" as="targetPoint"/>
                    </mxGeometry>
                </mxCell>
                <mxCell id="y_Y_A98wna_7HS-Qj-T9-21" value="Выключение регулятора&lt;br&gt;температуры" style="edgeLabel;html=1;align=center;verticalAlign=middle;resizable=0;points=[];" parent="y_Y_A98wna_7HS-Qj-T9-20" vertex="1" connectable="0">
                    <mxGeometry x="0.411" y="-2" relative="1" as="geometry">
                        <mxPoint x="61" y="-44" as="offset"/>
                    </mxGeometry>
                </mxCell>
                <mxCell id="y_Y_A98wna_7HS-Qj-T9-22" value="" style="endArrow=classic;html=1;dashed=1;" parent="GJAqLuctV7d4QnNTkr7x-1" source="y_Y_A98wna_7HS-Qj-T9-19" target="y_Y_A98wna_7HS-Qj-T9-35" edge="1">
                    <mxGeometry width="50" height="50" relative="1" as="geometry">
                        <mxPoint x="605.75" y="274" as="sourcePoint"/>
                        <mxPoint x="606.25" y="334" as="targetPoint"/>
                    </mxGeometry>
                </mxCell>
                <mxCell id="y_Y_A98wna_7HS-Qj-T9-23" value="Духовка в процессе" style="edgeLabel;html=1;align=center;verticalAlign=middle;resizable=0;points=[];" parent="y_Y_A98wna_7HS-Qj-T9-22" vertex="1" connectable="0">
                    <mxGeometry x="0.411" y="-2" relative="1" as="geometry">
                        <mxPoint x="2" y="-18" as="offset"/>
                    </mxGeometry>
                </mxCell>
                <mxCell id="y_Y_A98wna_7HS-Qj-T9-25" value="Переход в режим ожидания" style="ellipse;whiteSpace=wrap;html=1;fillColor=#dae8fc;strokeColor=#6c8ebf;" parent="GJAqLuctV7d4QnNTkr7x-1" vertex="1">
                    <mxGeometry x="543" y="465" width="126.5" height="50" as="geometry"/>
                </mxCell>
                <mxCell id="y_Y_A98wna_7HS-Qj-T9-33" value="" style="endArrow=classic;html=1;entryX=0.5;entryY=0;entryDx=0;entryDy=0;" parent="GJAqLuctV7d4QnNTkr7x-1" target="y_Y_A98wna_7HS-Qj-T9-25" edge="1">
                    <mxGeometry width="50" height="50" relative="1" as="geometry">
                        <mxPoint x="606.8401725377225" y="428.99947519892885" as="sourcePoint"/>
                        <mxPoint x="617.25" y="389" as="targetPoint"/>
                        <Array as="points"/>
                    </mxGeometry>
                </mxCell>
                <mxCell id="y_Y_A98wna_7HS-Qj-T9-35" value="Выключить нагреватель" style="ellipse;whiteSpace=wrap;html=1;fillColor=#dae8fc;strokeColor=#6c8ebf;" parent="GJAqLuctV7d4QnNTkr7x-1" vertex="1">
                    <mxGeometry x="544" y="379" width="126.5" height="50" as="geometry"/>
                </mxCell>
                <mxCell id="rNFzRF_u0l5dQMwdfjZN-1" value="" style="edgeStyle=orthogonalEdgeStyle;rounded=0;orthogonalLoop=1;jettySize=auto;html=1;" parent="GJAqLuctV7d4QnNTkr7x-1" source="Ja1Qfo0HMrVpdXDLE0HL-2" target="rNFzRF_u0l5dQMwdfjZN-0" edge="1">
                    <mxGeometry relative="1" as="geometry"/>
                </mxCell>
                <mxCell id="Ja1Qfo0HMrVpdXDLE0HL-2" value="Запустить таймер" style="ellipse;whiteSpace=wrap;html=1;fillColor=#dae8fc;strokeColor=#6c8ebf;" parent="GJAqLuctV7d4QnNTkr7x-1" vertex="1">
                    <mxGeometry x="128.75" y="450" width="126.5" height="50" as="geometry"/>
                </mxCell>
                <mxCell id="l9Ylh3SF_YIhHaDEPmyF-0" value="Сбросить таймер" style="ellipse;whiteSpace=wrap;html=1;fillColor=#dae8fc;strokeColor=#6c8ebf;" parent="GJAqLuctV7d4QnNTkr7x-1" vertex="1">
                    <mxGeometry x="690" y="284" width="126.5" height="48.5" as="geometry"/>
                </mxCell>
                <mxCell id="l9Ylh3SF_YIhHaDEPmyF-1" value="" style="endArrow=classic;html=1;entryX=0;entryY=0;entryDx=0;entryDy=0;dashed=1;" parent="GJAqLuctV7d4QnNTkr7x-1" source="y_Y_A98wna_7HS-Qj-T9-19" target="l9Ylh3SF_YIhHaDEPmyF-0" edge="1">
                    <mxGeometry width="50" height="50" relative="1" as="geometry">
                        <mxPoint x="679.9990065280269" y="189.00301635629526" as="sourcePoint"/>
                        <mxPoint x="770" y="260" as="targetPoint"/>
                        <Array as="points"/>
                    </mxGeometry>
                </mxCell>
                <mxCell id="l9Ylh3SF_YIhHaDEPmyF-2" value="Духовка в состоянии &quot;Таймер установлен&quot;" style="edgeLabel;html=1;align=center;verticalAlign=middle;resizable=0;points=[];" parent="l9Ylh3SF_YIhHaDEPmyF-1" vertex="1" connectable="0">
                    <mxGeometry x="0.411" y="-2" relative="1" as="geometry">
                        <mxPoint x="28" y="-13" as="offset"/>
                    </mxGeometry>
                </mxCell>
                <mxCell id="EQm2b_pLUAUHbGlWmIpv-0" value="" style="endArrow=classic;html=1;exitX=1;exitY=0.5;exitDx=0;exitDy=0;" parent="GJAqLuctV7d4QnNTkr7x-1" source="y_Y_A98wna_7HS-Qj-T9-11" edge="1">
                    <mxGeometry width="50" height="50" relative="1" as="geometry">
                        <mxPoint x="360" y="300" as="sourcePoint"/>
                        <mxPoint x="360" y="309" as="targetPoint"/>
                    </mxGeometry>
                </mxCell>
                <mxCell id="EQm2b_pLUAUHbGlWmIpv-7" value="Н1" style="edgeLabel;html=1;align=center;verticalAlign=middle;resizable=0;points=[];" parent="EQm2b_pLUAUHbGlWmIpv-0" vertex="1" connectable="0">
                    <mxGeometry x="-0.5211" y="-1" relative="1" as="geometry">
                        <mxPoint as="offset"/>
                    </mxGeometry>
                </mxCell>
                <mxCell id="EQm2b_pLUAUHbGlWmIpv-4" value="" style="endArrow=classic;html=1;exitX=1;exitY=0.5;exitDx=0;exitDy=0;" parent="GJAqLuctV7d4QnNTkr7x-1" source="Ja1Qfo0HMrVpdXDLE0HL-2" edge="1">
                    <mxGeometry width="50" height="50" relative="1" as="geometry">
                        <mxPoint x="255.25" y="309" as="sourcePoint"/>
                        <mxPoint x="350" y="475" as="targetPoint"/>
                        <Array as="points"/>
                    </mxGeometry>
                </mxCell>
                <mxCell id="EQm2b_pLUAUHbGlWmIpv-6" value="Т3" style="edgeLabel;html=1;align=center;verticalAlign=middle;resizable=0;points=[];" parent="EQm2b_pLUAUHbGlWmIpv-4" vertex="1" connectable="0">
                    <mxGeometry x="-0.4072" y="4" relative="1" as="geometry">
                        <mxPoint as="offset"/>
                    </mxGeometry>
                </mxCell>
                <mxCell id="EQm2b_pLUAUHbGlWmIpv-8" value="" style="endArrow=classic;html=1;exitX=1;exitY=0.5;exitDx=0;exitDy=0;" parent="GJAqLuctV7d4QnNTkr7x-1" source="7bLTO_sqb5uxfx4sEJJa-20" edge="1">
                    <mxGeometry width="50" height="50" relative="1" as="geometry">
                        <mxPoint x="265.25" y="485" as="sourcePoint"/>
                        <mxPoint x="360" y="391" as="targetPoint"/>
                        <Array as="points"/>
                    </mxGeometry>
                </mxCell>
                <mxCell id="EQm2b_pLUAUHbGlWmIpv-9" value="ДУ3" style="edgeLabel;html=1;align=center;verticalAlign=middle;resizable=0;points=[];" parent="EQm2b_pLUAUHbGlWmIpv-8" vertex="1" connectable="0">
                    <mxGeometry x="-0.4072" y="4" relative="1" as="geometry">
                        <mxPoint as="offset"/>
                    </mxGeometry>
                </mxCell>
                <mxCell id="Or9SazNu1od0WYcRf2uA-0" value="" style="endArrow=classic;html=1;exitX=1;exitY=0.5;exitDx=0;exitDy=0;" parent="GJAqLuctV7d4QnNTkr7x-1" source="l9Ylh3SF_YIhHaDEPmyF-0" edge="1">
                    <mxGeometry width="50" height="50" relative="1" as="geometry">
                        <mxPoint x="265.25" y="319" as="sourcePoint"/>
                        <mxPoint x="910" y="308" as="targetPoint"/>
                    </mxGeometry>
                </mxCell>
                <mxCell id="Or9SazNu1od0WYcRf2uA-1" value="ТМ2" style="edgeLabel;html=1;align=center;verticalAlign=middle;resizable=0;points=[];" parent="Or9SazNu1od0WYcRf2uA-0" vertex="1" connectable="0">
                    <mxGeometry x="-0.5211" y="-1" relative="1" as="geometry">
                        <mxPoint as="offset"/>
                    </mxGeometry>
                </mxCell>
                <mxCell id="frPfNEVpIbW-nfjRsz_2-0" value="Переход в режим ожидания" style="ellipse;whiteSpace=wrap;html=1;fillColor=#dae8fc;strokeColor=#6c8ebf;" parent="GJAqLuctV7d4QnNTkr7x-1" vertex="1">
                    <mxGeometry x="689" y="463" width="126.5" height="50" as="geometry"/>
                </mxCell>
                <mxCell id="frPfNEVpIbW-nfjRsz_2-1" value="" style="endArrow=classic;html=1;entryX=0.5;entryY=0;entryDx=0;entryDy=0;" parent="GJAqLuctV7d4QnNTkr7x-1" target="frPfNEVpIbW-nfjRsz_2-0" edge="1">
                    <mxGeometry width="50" height="50" relative="1" as="geometry">
                        <mxPoint x="752.8401725377225" y="426.99947519892885" as="sourcePoint"/>
                        <mxPoint x="763.25" y="387" as="targetPoint"/>
                        <Array as="points"/>
                    </mxGeometry>
                </mxCell>
                <mxCell id="frPfNEVpIbW-nfjRsz_2-4" value="" style="edgeStyle=none;html=1;exitX=0.5;exitY=1;exitDx=0;exitDy=0;entryX=0.5;entryY=0;entryDx=0;entryDy=0;" parent="GJAqLuctV7d4QnNTkr7x-1" source="l9Ylh3SF_YIhHaDEPmyF-0" target="frPfNEVpIbW-nfjRsz_2-3" edge="1">
                    <mxGeometry relative="1" as="geometry">
                        <mxPoint x="805.5" y="344" as="sourcePoint"/>
                        <mxPoint x="815.5" y="334" as="targetPoint"/>
                    </mxGeometry>
                </mxCell>
                <mxCell id="frPfNEVpIbW-nfjRsz_2-3" value="Выключить нагреватель" style="ellipse;whiteSpace=wrap;html=1;fillColor=#dae8fc;strokeColor=#6c8ebf;" parent="GJAqLuctV7d4QnNTkr7x-1" vertex="1">
                    <mxGeometry x="690" y="377" width="126.5" height="50" as="geometry"/>
                </mxCell>
                <mxCell id="mz_GOdTqgm0a2hcJd_q4-0" value="" style="endArrow=classic;html=1;exitX=1;exitY=0.5;exitDx=0;exitDy=0;" parent="GJAqLuctV7d4QnNTkr7x-1" source="frPfNEVpIbW-nfjRsz_2-0" edge="1">
                    <mxGeometry width="50" height="50" relative="1" as="geometry">
                        <mxPoint x="826.5" y="318.25" as="sourcePoint"/>
                        <mxPoint x="910" y="488" as="targetPoint"/>
                        <Array as="points"/>
                    </mxGeometry>
                </mxCell>
                <mxCell id="mz_GOdTqgm0a2hcJd_q4-5" value="ДУ7" style="edgeLabel;html=1;align=center;verticalAlign=middle;resizable=0;points=[];" parent="mz_GOdTqgm0a2hcJd_q4-0" vertex="1" connectable="0">
                    <mxGeometry x="-0.2487" y="1" relative="1" as="geometry">
                        <mxPoint as="offset"/>
                    </mxGeometry>
                </mxCell>
                <mxCell id="mz_GOdTqgm0a2hcJd_q4-3" value="" style="endArrow=classic;html=1;exitX=0;exitY=0.5;exitDx=0;exitDy=0;" parent="GJAqLuctV7d4QnNTkr7x-1" source="y_Y_A98wna_7HS-Qj-T9-25" edge="1">
                    <mxGeometry width="50" height="50" relative="1" as="geometry">
                        <mxPoint x="825.5" y="498" as="sourcePoint"/>
                        <mxPoint x="490" y="490" as="targetPoint"/>
                        <Array as="points"/>
                    </mxGeometry>
                </mxCell>
                <mxCell id="PI0GiObz5iBD4wdBE2a0-0" value="ДУ4" style="edgeLabel;html=1;align=center;verticalAlign=middle;resizable=0;points=[];" parent="mz_GOdTqgm0a2hcJd_q4-3" vertex="1" connectable="0">
                    <mxGeometry x="-0.3208" y="3" relative="1" as="geometry">
                        <mxPoint as="offset"/>
                    </mxGeometry>
                </mxCell>
                <mxCell id="-s1GNPMPlYWlyhuVSO9h-0" value="" style="endArrow=classic;html=1;exitX=1;exitY=0.5;exitDx=0;exitDy=0;" parent="GJAqLuctV7d4QnNTkr7x-1" source="frPfNEVpIbW-nfjRsz_2-3" edge="1">
                    <mxGeometry width="50" height="50" relative="1" as="geometry">
                        <mxPoint x="825.5" y="498" as="sourcePoint"/>
                        <mxPoint x="920" y="402" as="targetPoint"/>
                        <Array as="points"/>
                    </mxGeometry>
                </mxCell>
                <mxCell id="-s1GNPMPlYWlyhuVSO9h-1" value="Н2" style="edgeLabel;html=1;align=center;verticalAlign=middle;resizable=0;points=[];" parent="-s1GNPMPlYWlyhuVSO9h-0" vertex="1" connectable="0">
                    <mxGeometry x="-0.2487" y="1" relative="1" as="geometry">
                        <mxPoint as="offset"/>
                    </mxGeometry>
                </mxCell>
                <mxCell id="-s1GNPMPlYWlyhuVSO9h-2" value="" style="endArrow=classic;html=1;exitX=0;exitY=0.5;exitDx=0;exitDy=0;" parent="GJAqLuctV7d4QnNTkr7x-1" source="y_Y_A98wna_7HS-Qj-T9-35" edge="1">
                    <mxGeometry width="50" height="50" relative="1" as="geometry">
                        <mxPoint x="826.5" y="412" as="sourcePoint"/>
                        <mxPoint x="490" y="404" as="targetPoint"/>
                        <Array as="points"/>
                    </mxGeometry>
                </mxCell>
                <mxCell id="-s1GNPMPlYWlyhuVSO9h-3" value="Н2" style="edgeLabel;html=1;align=center;verticalAlign=middle;resizable=0;points=[];" parent="-s1GNPMPlYWlyhuVSO9h-2" vertex="1" connectable="0">
                    <mxGeometry x="-0.2487" y="1" relative="1" as="geometry">
                        <mxPoint as="offset"/>
                    </mxGeometry>
                </mxCell>
                <mxCell id="rNFzRF_u0l5dQMwdfjZN-0" value="Переход в состояние таймер установлен" style="ellipse;whiteSpace=wrap;html=1;fillColor=#dae8fc;strokeColor=#6c8ebf;" parent="GJAqLuctV7d4QnNTkr7x-1" vertex="1">
                    <mxGeometry x="128.75" y="530" width="126.5" height="61" as="geometry"/>
                </mxCell>
                <mxCell id="rNFzRF_u0l5dQMwdfjZN-2" value="" style="endArrow=classic;html=1;rounded=0;" parent="GJAqLuctV7d4QnNTkr7x-1" source="rNFzRF_u0l5dQMwdfjZN-0" edge="1">
                    <mxGeometry width="50" height="50" relative="1" as="geometry">
                        <mxPoint x="210" y="660" as="sourcePoint"/>
                        <mxPoint x="340" y="560" as="targetPoint"/>
                    </mxGeometry>
                </mxCell>
                <mxCell id="rNFzRF_u0l5dQMwdfjZN-3" value="ДУ5" style="edgeLabel;html=1;align=center;verticalAlign=middle;resizable=0;points=[];" parent="rNFzRF_u0l5dQMwdfjZN-2" vertex="1" connectable="0">
                    <mxGeometry x="-0.3452" y="-1" relative="1" as="geometry">
                        <mxPoint as="offset"/>
                    </mxGeometry>
                </mxCell>
            </root>
        </mxGraphModel>
    </diagram>
    <diagram id="fZX0k5Z-JAgOxxHAtFgj" name="Духовка МВО">
        <mxGraphModel dx="1561" dy="430" grid="1" gridSize="10" guides="1" tooltips="1" connect="1" arrows="1" fold="1" page="1" pageScale="1" pageWidth="827" pageHeight="1169" math="0" shadow="0">
            <root>
                <mxCell id="ZtCL0BUTYMkzUZmzJPe1-0"/>
                <mxCell id="ZtCL0BUTYMkzUZmzJPe1-1" parent="ZtCL0BUTYMkzUZmzJPe1-0"/>
                <mxCell id="9-XH2MNL3rLXa_3pzcqg-2" value="ЭВ1" style="endArrow=classic;html=1;fillColor=#fad9d5;strokeColor=#ae4132;exitX=1;exitY=0.75;exitDx=0;exitDy=0;entryX=0;entryY=0.75;entryDx=0;entryDy=0;" parent="ZtCL0BUTYMkzUZmzJPe1-1" source="FDaU0_tdcrjwNUrVFfj--0" target="lOtHEzxMUnhdJrcgqjS6-0" edge="1">
                    <mxGeometry width="50" height="50" relative="1" as="geometry">
                        <mxPoint x="300" y="90" as="sourcePoint"/>
                        <mxPoint x="300" y="160" as="targetPoint"/>
                        <Array as="points"/>
                    </mxGeometry>
                </mxCell>
                <mxCell id="xIR0DdyIUsdMpQRBa_30-0" value="ЭВ2" style="endArrow=classic;html=1;fillColor=#fad9d5;strokeColor=#ae4132;entryX=0;entryY=0.25;entryDx=0;entryDy=0;exitX=1;exitY=0.25;exitDx=0;exitDy=0;" parent="ZtCL0BUTYMkzUZmzJPe1-1" source="FDaU0_tdcrjwNUrVFfj--0" target="lOtHEzxMUnhdJrcgqjS6-0" edge="1">
                    <mxGeometry width="50" height="50" relative="1" as="geometry">
                        <mxPoint x="170" y="90" as="sourcePoint"/>
                        <mxPoint x="170" y="160" as="targetPoint"/>
                    </mxGeometry>
                </mxCell>
                <mxCell id="xIR0DdyIUsdMpQRBa_30-1" value="РТ1" style="endArrow=classic;html=1;exitX=0;exitY=0.5;exitDx=0;exitDy=0;fillColor=#b1ddf0;strokeColor=#10739e;entryX=1;entryY=0.5;entryDx=0;entryDy=0;" parent="ZtCL0BUTYMkzUZmzJPe1-1" source="FDaU0_tdcrjwNUrVFfj--0" target="QI0sY6AA9ZuPjZBbpsIm-0" edge="1">
                    <mxGeometry width="50" height="50" relative="1" as="geometry">
                        <mxPoint x="108" y="60" as="sourcePoint"/>
                        <mxPoint x="130" y="260" as="targetPoint"/>
                    </mxGeometry>
                </mxCell>
                <mxCell id="YYyifVJwc-SpAl0xt8DK-1" value="РТ2" style="endArrow=classic;html=1;exitX=0;exitY=0.25;exitDx=0;exitDy=0;fillColor=#b1ddf0;strokeColor=#10739e;entryX=1;entryY=0.25;entryDx=0;entryDy=0;" parent="ZtCL0BUTYMkzUZmzJPe1-1" source="FDaU0_tdcrjwNUrVFfj--0" target="QI0sY6AA9ZuPjZBbpsIm-0" edge="1">
                    <mxGeometry width="50" height="50" relative="1" as="geometry">
                        <mxPoint x="128" y="60" as="sourcePoint"/>
                        <mxPoint x="128" y="230" as="targetPoint"/>
                    </mxGeometry>
                </mxCell>
                <mxCell id="VcwZPWmqri9M-m1Iv1dp-0" value="ТМ1" style="endArrow=classic;html=1;exitX=0.25;exitY=1;exitDx=0;exitDy=0;entryX=0.25;entryY=0;entryDx=0;entryDy=0;fillColor=#fad7ac;strokeColor=#b46504;" parent="ZtCL0BUTYMkzUZmzJPe1-1" source="FDaU0_tdcrjwNUrVFfj--0" target="XddZGGgJlvfqH__SkQ1b-0" edge="1">
                    <mxGeometry width="50" height="50" relative="1" as="geometry">
                        <mxPoint x="158" y="60" as="sourcePoint"/>
                        <mxPoint x="158" y="130" as="targetPoint"/>
                    </mxGeometry>
                </mxCell>
                <mxCell id="VcwZPWmqri9M-m1Iv1dp-1" value="ТМ2" style="endArrow=classic;html=1;exitX=0.75;exitY=1;exitDx=0;exitDy=0;entryX=0.75;entryY=0;entryDx=0;entryDy=0;fillColor=#fad7ac;strokeColor=#b46504;" parent="ZtCL0BUTYMkzUZmzJPe1-1" source="FDaU0_tdcrjwNUrVFfj--0" target="XddZGGgJlvfqH__SkQ1b-0" edge="1">
                    <mxGeometry width="50" height="50" relative="1" as="geometry">
                        <mxPoint x="178" y="60" as="sourcePoint"/>
                        <mxPoint x="178" y="130" as="targetPoint"/>
                    </mxGeometry>
                </mxCell>
                <mxCell id="FDaU0_tdcrjwNUrVFfj--0" value="Духовка" style="html=1;fillColor=#d5e8d4;strokeColor=#82b366;rounded=1;" parent="ZtCL0BUTYMkzUZmzJPe1-1" vertex="1">
                    <mxGeometry x="264" y="230" width="180" height="100" as="geometry"/>
                </mxCell>
                <mxCell id="dTazUNeXnFLfylA4RK1N-0" value="" style="endArrow=classic;html=1;strokeColor=#82b366;exitX=0.25;exitY=1;exitDx=0;exitDy=0;entryX=0.25;entryY=0;entryDx=0;entryDy=0;fillColor=#d5e8d4;" parent="ZtCL0BUTYMkzUZmzJPe1-1" source="zs1vf5pN8YAHoKJEDTTu-0" target="FDaU0_tdcrjwNUrVFfj--0" edge="1">
                    <mxGeometry width="50" height="50" relative="1" as="geometry">
                        <mxPoint x="260" y="270" as="sourcePoint"/>
                        <mxPoint x="310" y="220" as="targetPoint"/>
                    </mxGeometry>
                </mxCell>
                <mxCell id="dTazUNeXnFLfylA4RK1N-1" value="ДУ3" style="edgeLabel;html=1;align=center;verticalAlign=middle;resizable=0;points=[];" parent="dTazUNeXnFLfylA4RK1N-0" vertex="1" connectable="0">
                    <mxGeometry x="0.4089" y="-1" relative="1" as="geometry">
                        <mxPoint x="5" y="-21" as="offset"/>
                    </mxGeometry>
                </mxCell>
                <mxCell id="7UbMLccTA900D5xy008P-0" value="ДУ4" style="endArrow=classic;html=1;strokeColor=#82b366;exitX=0.5;exitY=1;exitDx=0;exitDy=0;entryX=0.5;entryY=0;entryDx=0;entryDy=0;fillColor=#d5e8d4;" parent="ZtCL0BUTYMkzUZmzJPe1-1" source="zs1vf5pN8YAHoKJEDTTu-0" target="FDaU0_tdcrjwNUrVFfj--0" edge="1">
                    <mxGeometry width="50" height="50" relative="1" as="geometry">
                        <mxPoint x="429" y="95" as="sourcePoint"/>
                        <mxPoint x="429" y="220" as="targetPoint"/>
                    </mxGeometry>
                </mxCell>
                <mxCell id="7UbMLccTA900D5xy008P-2" value="ДУ5" style="endArrow=classic;html=1;strokeColor=#82b366;exitX=0.75;exitY=1;exitDx=0;exitDy=0;entryX=0.75;entryY=0;entryDx=0;entryDy=0;fillColor=#d5e8d4;" parent="ZtCL0BUTYMkzUZmzJPe1-1" source="zs1vf5pN8YAHoKJEDTTu-0" target="FDaU0_tdcrjwNUrVFfj--0" edge="1">
                    <mxGeometry width="50" height="50" relative="1" as="geometry">
                        <mxPoint x="439" y="91" as="sourcePoint"/>
                        <mxPoint x="439" y="231" as="targetPoint"/>
                    </mxGeometry>
                </mxCell>
                <mxCell id="lOtHEzxMUnhdJrcgqjS6-0" value="Электровилка" style="html=1;fillColor=#fad9d5;strokeColor=#ae4132;rounded=1;" parent="ZtCL0BUTYMkzUZmzJPe1-1" vertex="1">
                    <mxGeometry x="590" y="230" width="180" height="100" as="geometry"/>
                </mxCell>
                <mxCell id="PIcN0_Bfmx6O03bE8m9V-0" value="ДУ1" style="endArrow=classic;html=1;fillColor=#d5e8d4;strokeColor=#82b366;entryX=0;entryY=0.5;entryDx=0;entryDy=0;exitX=1;exitY=0.5;exitDx=0;exitDy=0;" parent="ZtCL0BUTYMkzUZmzJPe1-1" source="FDaU0_tdcrjwNUrVFfj--0" target="lOtHEzxMUnhdJrcgqjS6-0" edge="1">
                    <mxGeometry width="50" height="50" relative="1" as="geometry">
                        <mxPoint x="454" y="80" as="sourcePoint"/>
                        <mxPoint x="645" y="230" as="targetPoint"/>
                        <Array as="points"/>
                    </mxGeometry>
                </mxCell>
                <mxCell id="PIcN0_Bfmx6O03bE8m9V-2" value="ДУ2" style="endArrow=classic;html=1;fillColor=#d5e8d4;strokeColor=#82b366;entryX=0.148;entryY=-0.025;entryDx=0;entryDy=0;entryPerimeter=0;" parent="ZtCL0BUTYMkzUZmzJPe1-1" source="zs1vf5pN8YAHoKJEDTTu-0" target="FDaU0_tdcrjwNUrVFfj--0" edge="1">
                    <mxGeometry width="50" height="50" relative="1" as="geometry">
                        <mxPoint x="600.0000000000002" y="240" as="sourcePoint"/>
                        <mxPoint x="444" y="230" as="targetPoint"/>
                        <Array as="points">
                            <mxPoint x="210" y="100"/>
                        </Array>
                    </mxGeometry>
                </mxCell>
                <mxCell id="QI0sY6AA9ZuPjZBbpsIm-0" value="Регулятор температуры" style="html=1;fillColor=#b1ddf0;strokeColor=#10739e;rounded=1;" parent="ZtCL0BUTYMkzUZmzJPe1-1" vertex="1">
                    <mxGeometry x="-50" y="230" width="180" height="100" as="geometry"/>
                </mxCell>
                <mxCell id="XddZGGgJlvfqH__SkQ1b-0" value="Таймер" style="html=1;fillColor=#fad7ac;strokeColor=#b46504;rounded=1;" parent="ZtCL0BUTYMkzUZmzJPe1-1" vertex="1">
                    <mxGeometry x="265" y="440" width="180" height="110" as="geometry"/>
                </mxCell>
                <mxCell id="N0bkLboyIuqzSvCP8aRc-0" value="Нагреватель" style="html=1;fillColor=#d0cee2;strokeColor=#56517e;rounded=1;" parent="ZtCL0BUTYMkzUZmzJPe1-1" vertex="1">
                    <mxGeometry x="-50" y="440" width="180" height="110" as="geometry"/>
                </mxCell>
                <mxCell id="Pw2QzQYOQH4l_rgcw5hD-0" value="Н1" style="endArrow=classic;html=1;exitX=0.75;exitY=1;exitDx=0;exitDy=0;fillColor=#d0cee2;strokeColor=#56517e;entryX=0.75;entryY=0;entryDx=0;entryDy=0;" parent="ZtCL0BUTYMkzUZmzJPe1-1" source="QI0sY6AA9ZuPjZBbpsIm-0" target="N0bkLboyIuqzSvCP8aRc-0" edge="1">
                    <mxGeometry width="50" height="50" relative="1" as="geometry">
                        <mxPoint x="274" y="270" as="sourcePoint"/>
                        <mxPoint x="140" y="270" as="targetPoint"/>
                    </mxGeometry>
                </mxCell>
                <mxCell id="Pw2QzQYOQH4l_rgcw5hD-1" value="Н2" style="endArrow=classic;html=1;exitX=0.25;exitY=1;exitDx=0;exitDy=0;fillColor=#d0cee2;strokeColor=#56517e;entryX=0.25;entryY=0;entryDx=0;entryDy=0;" parent="ZtCL0BUTYMkzUZmzJPe1-1" source="QI0sY6AA9ZuPjZBbpsIm-0" target="N0bkLboyIuqzSvCP8aRc-0" edge="1">
                    <mxGeometry width="50" height="50" relative="1" as="geometry">
                        <mxPoint x="95" y="270" as="sourcePoint"/>
                        <mxPoint x="95" y="340" as="targetPoint"/>
                    </mxGeometry>
                </mxCell>
                <mxCell id="o1FM360Y8BghdWVFBHHG-0" value="ДУ6" style="endArrow=classic;html=1;fillColor=#d5e8d4;strokeColor=#82b366;entryX=0.425;entryY=1.031;entryDx=0;entryDy=0;entryPerimeter=0;exitX=0.428;exitY=-0.007;exitDx=0;exitDy=0;exitPerimeter=0;" parent="ZtCL0BUTYMkzUZmzJPe1-1" source="XddZGGgJlvfqH__SkQ1b-0" target="FDaU0_tdcrjwNUrVFfj--0" edge="1">
                    <mxGeometry width="50" height="50" relative="1" as="geometry">
                        <mxPoint x="409" y="270" as="sourcePoint"/>
                        <mxPoint x="410" y="350" as="targetPoint"/>
                    </mxGeometry>
                </mxCell>
                <mxCell id="zs1vf5pN8YAHoKJEDTTu-0" value="Пользователь" style="html=1;fillColor=#fff2cc;strokeColor=#d6b656;" parent="ZtCL0BUTYMkzUZmzJPe1-1" vertex="1">
                    <mxGeometry x="180" y="70" width="370" height="30" as="geometry"/>
                </mxCell>
                <mxCell id="zs1vf5pN8YAHoKJEDTTu-2" value="ДУ7" style="endArrow=classic;html=1;strokeColor=#82b366;exitX=0.868;exitY=1;exitDx=0;exitDy=0;entryX=0.909;entryY=-0.019;entryDx=0;entryDy=0;exitPerimeter=0;entryPerimeter=0;fillColor=#d5e8d4;" parent="ZtCL0BUTYMkzUZmzJPe1-1" source="zs1vf5pN8YAHoKJEDTTu-0" target="FDaU0_tdcrjwNUrVFfj--0" edge="1">
                    <mxGeometry width="50" height="50" relative="1" as="geometry">
                        <mxPoint x="444" y="110" as="sourcePoint"/>
                        <mxPoint x="409" y="240" as="targetPoint"/>
                    </mxGeometry>
                </mxCell>
                <mxCell id="V6CXMbX-epiVtedcrEEE-0" value="ДУ8" style="endArrow=classic;html=1;strokeColor=#82b366;exitX=0.608;exitY=1.078;exitDx=0;exitDy=0;entryX=0.651;entryY=0.002;entryDx=0;entryDy=0;fillColor=#d5e8d4;exitPerimeter=0;entryPerimeter=0;" parent="ZtCL0BUTYMkzUZmzJPe1-1" source="zs1vf5pN8YAHoKJEDTTu-0" target="FDaU0_tdcrjwNUrVFfj--0" edge="1">
                    <mxGeometry width="50" height="50" relative="1" as="geometry">
                        <mxPoint x="364" y="110" as="sourcePoint"/>
                        <mxPoint x="364" y="240" as="targetPoint"/>
                    </mxGeometry>
                </mxCell>
                <mxCell id="V6CXMbX-epiVtedcrEEE-1" value="ДУ9" style="endArrow=classic;html=1;strokeColor=#82b366;exitX=0.354;exitY=1.037;exitDx=0;exitDy=0;entryX=0.408;entryY=-0.004;entryDx=0;entryDy=0;fillColor=#d5e8d4;exitPerimeter=0;entryPerimeter=0;" parent="ZtCL0BUTYMkzUZmzJPe1-1" source="zs1vf5pN8YAHoKJEDTTu-0" target="FDaU0_tdcrjwNUrVFfj--0" edge="1">
                    <mxGeometry width="50" height="50" relative="1" as="geometry">
                        <mxPoint x="398.5600000000002" y="112.33999999999992" as="sourcePoint"/>
                        <mxPoint x="381.46000000000004" y="238.37999999999988" as="targetPoint"/>
                    </mxGeometry>
                </mxCell>
                <mxCell id="k7OGwQ8CwHR6gWrD6-He-0" value="ТМ3" style="endArrow=classic;html=1;exitX=0.613;exitY=1.003;exitDx=0;exitDy=0;entryX=0.607;entryY=0;entryDx=0;entryDy=0;fillColor=#fad7ac;strokeColor=#b46504;exitPerimeter=0;entryPerimeter=0;" parent="ZtCL0BUTYMkzUZmzJPe1-1" source="FDaU0_tdcrjwNUrVFfj--0" target="XddZGGgJlvfqH__SkQ1b-0" edge="1">
                    <mxGeometry width="50" height="50" relative="1" as="geometry">
                        <mxPoint x="409" y="340" as="sourcePoint"/>
                        <mxPoint x="410.0000000000002" y="450" as="targetPoint"/>
                    </mxGeometry>
                </mxCell>
                <mxCell id="k7OGwQ8CwHR6gWrD6-He-4" value="Н3" style="endArrow=classic;html=1;exitX=0.067;exitY=0.992;exitDx=0;exitDy=0;fillColor=#d0cee2;strokeColor=#56517e;exitPerimeter=0;" parent="ZtCL0BUTYMkzUZmzJPe1-1" source="FDaU0_tdcrjwNUrVFfj--0" target="N0bkLboyIuqzSvCP8aRc-0" edge="1">
                    <mxGeometry width="50" height="50" relative="1" as="geometry">
                        <mxPoint x="95" y="340" as="sourcePoint"/>
                        <mxPoint x="95" y="450" as="targetPoint"/>
                    </mxGeometry>
                </mxCell>
                <mxCell id="6xlwyXZ29M4Ih78Bmm1h-0" value="РТ3" style="endArrow=classic;html=1;exitX=0;exitY=0.75;exitDx=0;exitDy=0;fillColor=#b1ddf0;strokeColor=#10739e;entryX=1;entryY=0.75;entryDx=0;entryDy=0;" parent="ZtCL0BUTYMkzUZmzJPe1-1" source="FDaU0_tdcrjwNUrVFfj--0" target="QI0sY6AA9ZuPjZBbpsIm-0" edge="1">
                    <mxGeometry width="50" height="50" relative="1" as="geometry">
                        <mxPoint x="274" y="290" as="sourcePoint"/>
                        <mxPoint x="140" y="290" as="targetPoint"/>
                    </mxGeometry>
                </mxCell>
                <mxCell id="Q2GHoT3xl6BmnfQ0gbzF-0" value="ДУ5" style="endArrow=classic;html=1;fillColor=#d5e8d4;strokeColor=#82b366;" parent="ZtCL0BUTYMkzUZmzJPe1-1" edge="1">
                    <mxGeometry width="50" height="50" relative="1" as="geometry">
                        <mxPoint x="431" y="440" as="sourcePoint"/>
                        <mxPoint x="431" y="330" as="targetPoint"/>
                    </mxGeometry>
                </mxCell>
            </root>
        </mxGraphModel>
    </diagram>
    <diagram id="xDvaSDNP2RH4p0NBtuDw" name="Духовка КУ">
        <mxGraphModel dx="816" dy="2678" grid="1" gridSize="10" guides="1" tooltips="1" connect="1" arrows="1" fold="1" page="1" pageScale="1" pageWidth="850" pageHeight="1100" math="0" shadow="0">
            <root>
                <mxCell id="Zj6yhEbdwNJzNqMhZD0T-0"/>
                <mxCell id="Zj6yhEbdwNJzNqMhZD0T-1" parent="Zj6yhEbdwNJzNqMhZD0T-0"/>
                <mxCell id="YsPpnDb5eAmeHwA8trw8-2" value="&lt;b&gt;&lt;font style=&quot;font-size: 15px&quot;&gt;ДУХОВКА&lt;/font&gt;&lt;/b&gt;" style="text;html=1;align=center;verticalAlign=middle;resizable=0;points=[];autosize=1;strokeColor=none;fillColor=none;" parent="Zj6yhEbdwNJzNqMhZD0T-1" vertex="1">
                    <mxGeometry x="147" y="-1180" width="90" height="20" as="geometry"/>
                </mxCell>
                <mxCell id="YsPpnDb5eAmeHwA8trw8-3" value="&lt;b&gt;&lt;font style=&quot;font-size: 15px&quot;&gt;ЭЛЕКТРОВИЛКА&lt;/font&gt;&lt;/b&gt;" style="text;html=1;align=center;verticalAlign=middle;resizable=0;points=[];autosize=1;strokeColor=none;fillColor=none;" parent="Zj6yhEbdwNJzNqMhZD0T-1" vertex="1">
                    <mxGeometry x="352" y="-1180" width="140" height="20" as="geometry"/>
                </mxCell>
                <mxCell id="5s1jGnAewSO6Z_hkwcT8-0" value="&lt;span style=&quot;font-size: 15px&quot;&gt;&lt;b&gt;ТАЙМЕР&lt;/b&gt;&lt;/span&gt;" style="text;html=1;align=center;verticalAlign=middle;resizable=0;points=[];autosize=1;strokeColor=none;fillColor=none;" parent="Zj6yhEbdwNJzNqMhZD0T-1" vertex="1">
                    <mxGeometry x="570" y="-1180" width="80" height="20" as="geometry"/>
                </mxCell>
                <mxCell id="5HA6AfLDzGLRwsns0B0q-0" value="&lt;span style=&quot;font-size: 15px&quot;&gt;&lt;b&gt;НАГРЕВАТЕЛЬ&lt;/b&gt;&lt;/span&gt;" style="text;html=1;align=center;verticalAlign=middle;resizable=0;points=[];autosize=1;strokeColor=none;fillColor=none;" parent="Zj6yhEbdwNJzNqMhZD0T-1" vertex="1">
                    <mxGeometry x="1027" y="-1180" width="130" height="20" as="geometry"/>
                </mxCell>
                <mxCell id="eAfTMvHta68YsgANUnKj-0" value="&lt;span style=&quot;font-size: 15px&quot;&gt;&lt;b&gt;РЕГУЛЯТОР ТЕМПЕРАТУРЫ&lt;/b&gt;&lt;/span&gt;" style="text;html=1;align=center;verticalAlign=middle;resizable=0;points=[];autosize=1;strokeColor=none;fillColor=none;" parent="Zj6yhEbdwNJzNqMhZD0T-1" vertex="1">
                    <mxGeometry x="747" y="-1180" width="220" height="20" as="geometry"/>
                </mxCell>
                <mxCell id="1cB_TQlAIVUQP6d0m9qJ-0" value="1. Сброшен" style="html=1;fillColor=#b1ddf0;strokeColor=#10739e;" parent="Zj6yhEbdwNJzNqMhZD0T-1" vertex="1">
                    <mxGeometry x="107" y="1350" width="110" height="30" as="geometry"/>
                </mxCell>
                <mxCell id="-fWvLwIFoZsGVdPvu5W6-0" value="Готова ожить" style="html=1;fillColor=#d5e8d4;strokeColor=#82b366;" parent="Zj6yhEbdwNJzNqMhZD0T-1" vertex="1">
                    <mxGeometry x="117" y="-940" width="150" height="50" as="geometry"/>
                </mxCell>
                <mxCell id="-fWvLwIFoZsGVdPvu5W6-1" value="Выключена из сети" style="html=1;fillColor=#fad9d5;strokeColor=#ae4132;" parent="Zj6yhEbdwNJzNqMhZD0T-1" vertex="1">
                    <mxGeometry x="342" y="-1140" width="150" height="30" as="geometry"/>
                </mxCell>
                <mxCell id="3ijWkTZ4UENiAqEJU-tE-0" value="Сброшен" style="html=1;fillColor=#fad7ac;strokeColor=#b46504;" parent="Zj6yhEbdwNJzNqMhZD0T-1" vertex="1">
                    <mxGeometry x="552" y="-1140" width="140" height="30" as="geometry"/>
                </mxCell>
                <mxCell id="CSFTJBS7xgZftHJxtxEu-0" value="Не установлен" style="html=1;fillColor=#b1ddf0;strokeColor=#10739e;" parent="Zj6yhEbdwNJzNqMhZD0T-1" vertex="1">
                    <mxGeometry x="787" y="-1140" width="140" height="30" as="geometry"/>
                </mxCell>
                <mxCell id="CSFTJBS7xgZftHJxtxEu-1" value="Выключен" style="html=1;fillColor=#d0cee2;strokeColor=#56517e;" parent="Zj6yhEbdwNJzNqMhZD0T-1" vertex="1">
                    <mxGeometry x="1022" y="-1140" width="140" height="30" as="geometry"/>
                </mxCell>
                <mxCell id="RkNyc78MIVzCPhyzS551-0" value="В режиме ожидания" style="html=1;fillColor=#d5e8d4;strokeColor=#82b366;" parent="Zj6yhEbdwNJzNqMhZD0T-1" vertex="1">
                    <mxGeometry x="117" y="-800" width="150" height="30" as="geometry"/>
                </mxCell>
                <mxCell id="RkNyc78MIVzCPhyzS551-1" value="" style="endArrow=classic;html=1;fontSize=15;strokeColor=#23445d;exitX=0.5;exitY=1;exitDx=0;exitDy=0;entryX=0.5;entryY=0;entryDx=0;entryDy=0;fillColor=#bac8d3;" parent="Zj6yhEbdwNJzNqMhZD0T-1" source="-fWvLwIFoZsGVdPvu5W6-0" target="RkNyc78MIVzCPhyzS551-0" edge="1">
                    <mxGeometry width="50" height="50" relative="1" as="geometry">
                        <mxPoint x="307" y="-700" as="sourcePoint"/>
                        <mxPoint x="357" y="-750" as="targetPoint"/>
                    </mxGeometry>
                </mxCell>
                <mxCell id="9bJtHi9JNe8bzx8bbzRI-0" value="" style="endArrow=classic;html=1;fontSize=15;strokeColor=#23445d;exitX=0.5;exitY=1;exitDx=0;exitDy=0;fillColor=#bac8d3;entryX=0.5;entryY=0;entryDx=0;entryDy=0;" parent="Zj6yhEbdwNJzNqMhZD0T-1" source="9bJtHi9JNe8bzx8bbzRI-1" target="aaBObSr2pyQe1QrZGvs_-0" edge="1">
                    <mxGeometry width="50" height="50" relative="1" as="geometry">
                        <mxPoint x="202" y="-810" as="sourcePoint"/>
                        <mxPoint x="192" y="-650" as="targetPoint"/>
                    </mxGeometry>
                </mxCell>
                <mxCell id="aaBObSr2pyQe1QrZGvs_-0" value="Таймер установлен" style="html=1;fillColor=#d5e8d4;strokeColor=#82b366;" parent="Zj6yhEbdwNJzNqMhZD0T-1" vertex="1">
                    <mxGeometry x="117" y="-553" width="150" height="30" as="geometry"/>
                </mxCell>
                <mxCell id="9bJtHi9JNe8bzx8bbzRI-1" value="В процессе приготовления" style="html=1;fillColor=#d5e8d4;strokeColor=#82b366;" parent="Zj6yhEbdwNJzNqMhZD0T-1" vertex="1">
                    <mxGeometry x="107" y="-679" width="170" height="30" as="geometry"/>
                </mxCell>
                <mxCell id="aaBObSr2pyQe1QrZGvs_-3" value="" style="endArrow=classic;html=1;fontSize=15;strokeColor=#23445d;exitX=0.5;exitY=1;exitDx=0;exitDy=0;fillColor=#bac8d3;entryX=0.5;entryY=0;entryDx=0;entryDy=0;" parent="Zj6yhEbdwNJzNqMhZD0T-1" source="RkNyc78MIVzCPhyzS551-0" target="9bJtHi9JNe8bzx8bbzRI-1" edge="1">
                    <mxGeometry width="50" height="50" relative="1" as="geometry">
                        <mxPoint x="202" y="-610" as="sourcePoint"/>
                        <mxPoint x="202" y="-550" as="targetPoint"/>
                    </mxGeometry>
                </mxCell>
                <mxCell id="GI7FwbqvyvxUwaIdjQAG-1" value="" style="edgeStyle=none;html=1;exitX=0.5;exitY=1;exitDx=0;exitDy=0;" parent="Zj6yhEbdwNJzNqMhZD0T-1" source="ZybdOVk5WjGqvjC3CjWN-0" target="_M4chHHt4FsStTuZnUq3-2" edge="1">
                    <mxGeometry relative="1" as="geometry"/>
                </mxCell>
                <mxCell id="_M4chHHt4FsStTuZnUq3-0" value="В режиме ожидания" style="html=1;fillColor=#d5e8d4;strokeColor=#82b366;" parent="Zj6yhEbdwNJzNqMhZD0T-1" vertex="1">
                    <mxGeometry x="117" y="-440" width="150" height="30" as="geometry"/>
                </mxCell>
                <mxCell id="_M4chHHt4FsStTuZnUq3-1" value="" style="endArrow=classic;html=1;fontSize=15;strokeColor=#23445d;fillColor=#bac8d3;entryX=0.5;entryY=0;entryDx=0;entryDy=0;exitX=0.5;exitY=1;exitDx=0;exitDy=0;" parent="Zj6yhEbdwNJzNqMhZD0T-1" source="aaBObSr2pyQe1QrZGvs_-0" target="_M4chHHt4FsStTuZnUq3-0" edge="1">
                    <mxGeometry width="50" height="50" relative="1" as="geometry">
                        <mxPoint x="192" y="-500" as="sourcePoint"/>
                        <mxPoint x="202" y="-544" as="targetPoint"/>
                    </mxGeometry>
                </mxCell>
                <mxCell id="_M4chHHt4FsStTuZnUq3-2" value="Выключена" style="html=1;fillColor=#d5e8d4;strokeColor=#82b366;" parent="Zj6yhEbdwNJzNqMhZD0T-1" vertex="1">
                    <mxGeometry x="117" y="-202" width="150" height="30" as="geometry"/>
                </mxCell>
                <mxCell id="_M4chHHt4FsStTuZnUq3-3" value="" style="endArrow=classic;html=1;fontSize=15;strokeColor=#23445d;fillColor=#bac8d3;entryX=0.5;entryY=0;entryDx=0;entryDy=0;exitX=0.5;exitY=1;exitDx=0;exitDy=0;" parent="Zj6yhEbdwNJzNqMhZD0T-1" source="_M4chHHt4FsStTuZnUq3-0" target="ZybdOVk5WjGqvjC3CjWN-0" edge="1">
                    <mxGeometry width="50" height="50" relative="1" as="geometry">
                        <mxPoint x="202" y="-514" as="sourcePoint"/>
                        <mxPoint x="202" y="-430" as="targetPoint"/>
                    </mxGeometry>
                </mxCell>
                <mxCell id="_M4chHHt4FsStTuZnUq3-8" value="" style="endArrow=classic;html=1;fontSize=15;exitX=0.5;exitY=1;exitDx=0;exitDy=0;entryX=0.5;entryY=0;entryDx=0;entryDy=0;" parent="Zj6yhEbdwNJzNqMhZD0T-1" source="E8N4iQsdscOyhsd-9uqy-2" target="_M4chHHt4FsStTuZnUq3-9" edge="1">
                    <mxGeometry width="50" height="50" relative="1" as="geometry">
                        <mxPoint x="417" y="-840" as="sourcePoint"/>
                        <mxPoint x="427" y="-340" as="targetPoint"/>
                    </mxGeometry>
                </mxCell>
                <mxCell id="_M4chHHt4FsStTuZnUq3-9" value="Выключена из сети" style="html=1;fillColor=#fad9d5;strokeColor=#ae4132;" parent="Zj6yhEbdwNJzNqMhZD0T-1" vertex="1">
                    <mxGeometry x="342" y="-270" width="150" height="30" as="geometry"/>
                </mxCell>
                <mxCell id="GI7FwbqvyvxUwaIdjQAG-2" value="" style="edgeStyle=none;html=1;" parent="Zj6yhEbdwNJzNqMhZD0T-1" source="_M4chHHt4FsStTuZnUq3-11" target="_M4chHHt4FsStTuZnUq3-12" edge="1">
                    <mxGeometry relative="1" as="geometry"/>
                </mxCell>
                <mxCell id="_M4chHHt4FsStTuZnUq3-11" value="Установлен" style="html=1;fillColor=#fad7ac;strokeColor=#b46504;" parent="Zj6yhEbdwNJzNqMhZD0T-1" vertex="1">
                    <mxGeometry x="552" y="-620" width="140" height="30" as="geometry"/>
                </mxCell>
                <mxCell id="_M4chHHt4FsStTuZnUq3-12" value="Отсчет времени" style="html=1;fillColor=#fad7ac;strokeColor=#b46504;" parent="Zj6yhEbdwNJzNqMhZD0T-1" vertex="1">
                    <mxGeometry x="552" y="-553" width="140" height="30" as="geometry"/>
                </mxCell>
                <mxCell id="_M4chHHt4FsStTuZnUq3-13" value="" style="endArrow=classic;html=1;fontSize=15;strokeColor=#23445d;exitX=0.5;exitY=1;exitDx=0;exitDy=0;entryX=0.5;entryY=0;entryDx=0;entryDy=0;fillColor=#bac8d3;" parent="Zj6yhEbdwNJzNqMhZD0T-1" source="B55kDetTeWWXbYuLlCa1-10" target="_M4chHHt4FsStTuZnUq3-11" edge="1">
                    <mxGeometry width="50" height="50" relative="1" as="geometry">
                        <mxPoint x="657" y="-690" as="sourcePoint"/>
                        <mxPoint x="707" y="-740" as="targetPoint"/>
                    </mxGeometry>
                </mxCell>
                <mxCell id="_M4chHHt4FsStTuZnUq3-14" value="" style="endArrow=classic;html=1;fontSize=15;strokeColor=#23445d;exitX=0.5;exitY=1;exitDx=0;exitDy=0;entryX=0.5;entryY=0;entryDx=0;entryDy=0;fillColor=#bac8d3;" parent="Zj6yhEbdwNJzNqMhZD0T-1" source="_M4chHHt4FsStTuZnUq3-11" target="_M4chHHt4FsStTuZnUq3-12" edge="1">
                    <mxGeometry width="50" height="50" relative="1" as="geometry">
                        <mxPoint x="632" y="-920" as="sourcePoint"/>
                        <mxPoint x="632" y="-573" as="targetPoint"/>
                    </mxGeometry>
                </mxCell>
                <mxCell id="_M4chHHt4FsStTuZnUq3-15" value="" style="endArrow=classic;html=1;fontSize=15;strokeColor=#23445d;exitX=0.5;exitY=1;exitDx=0;exitDy=0;fillColor=#bac8d3;entryX=0.5;entryY=0;entryDx=0;entryDy=0;" parent="Zj6yhEbdwNJzNqMhZD0T-1" source="_M4chHHt4FsStTuZnUq3-12" target="_M4chHHt4FsStTuZnUq3-17" edge="1">
                    <mxGeometry width="50" height="50" relative="1" as="geometry">
                        <mxPoint x="632" y="-543" as="sourcePoint"/>
                        <mxPoint x="622" y="-450" as="targetPoint"/>
                    </mxGeometry>
                </mxCell>
                <mxCell id="_M4chHHt4FsStTuZnUq3-17" value="Подача сигнала" style="html=1;fillColor=#fad7ac;strokeColor=#b46504;" parent="Zj6yhEbdwNJzNqMhZD0T-1" vertex="1">
                    <mxGeometry x="552" y="-485" width="140" height="30" as="geometry"/>
                </mxCell>
                <mxCell id="_M4chHHt4FsStTuZnUq3-18" value="" style="endArrow=classic;html=1;fontSize=15;strokeColor=#005700;exitX=0;exitY=0.5;exitDx=0;exitDy=0;fillColor=#008a00;" parent="Zj6yhEbdwNJzNqMhZD0T-1" source="_M4chHHt4FsStTuZnUq3-17" edge="1">
                    <mxGeometry width="50" height="50" relative="1" as="geometry">
                        <mxPoint x="667" y="-340" as="sourcePoint"/>
                        <mxPoint x="197" y="-470" as="targetPoint"/>
                    </mxGeometry>
                </mxCell>
                <mxCell id="_M4chHHt4FsStTuZnUq3-21" value="Установлен" style="html=1;fillColor=#b1ddf0;strokeColor=#10739e;" parent="Zj6yhEbdwNJzNqMhZD0T-1" vertex="1">
                    <mxGeometry x="787" y="-620" width="140" height="30" as="geometry"/>
                </mxCell>
                <mxCell id="ROv1LuAiazIBWhrGLdTG-0" value="" style="endArrow=classic;html=1;fontSize=15;strokeColor=#23445d;entryX=0.5;entryY=0;entryDx=0;entryDy=0;fillColor=#bac8d3;exitX=0.5;exitY=1;exitDx=0;exitDy=0;" parent="Zj6yhEbdwNJzNqMhZD0T-1" source="B55kDetTeWWXbYuLlCa1-6" target="_M4chHHt4FsStTuZnUq3-21" edge="1">
                    <mxGeometry width="50" height="50" relative="1" as="geometry">
                        <mxPoint x="857" y="-830" as="sourcePoint"/>
                        <mxPoint x="807" y="-800" as="targetPoint"/>
                    </mxGeometry>
                </mxCell>
                <mxCell id="ROv1LuAiazIBWhrGLdTG-1" value="" style="endArrow=classic;html=1;fontSize=15;strokeColor=#23445d;fillColor=#bac8d3;entryX=0.5;entryY=0;entryDx=0;entryDy=0;exitX=0.5;exitY=1;exitDx=0;exitDy=0;" parent="Zj6yhEbdwNJzNqMhZD0T-1" source="_M4chHHt4FsStTuZnUq3-21" target="7C1l2Xv-H3bEY7cuFIju-3" edge="1">
                    <mxGeometry width="50" height="50" relative="1" as="geometry">
                        <mxPoint x="837" y="-680" as="sourcePoint"/>
                        <mxPoint x="857" y="-440" as="targetPoint"/>
                    </mxGeometry>
                </mxCell>
                <mxCell id="ROv1LuAiazIBWhrGLdTG-2" value="" style="endArrow=classic;html=1;fontSize=15;strokeColor=#006EAF;fillColor=#1ba1e2;exitX=1;exitY=0.5;exitDx=0;exitDy=0;" parent="Zj6yhEbdwNJzNqMhZD0T-1" source="RkNyc78MIVzCPhyzS551-0" edge="1">
                    <mxGeometry width="50" height="50" relative="1" as="geometry">
                        <mxPoint x="207" y="-710" as="sourcePoint"/>
                        <mxPoint x="857" y="-785" as="targetPoint"/>
                        <Array as="points"/>
                    </mxGeometry>
                </mxCell>
                <mxCell id="7C1l2Xv-H3bEY7cuFIju-0" value="Включен" style="html=1;fillColor=#d0cee2;strokeColor=#56517e;" parent="Zj6yhEbdwNJzNqMhZD0T-1" vertex="1">
                    <mxGeometry x="1022" y="-553" width="140" height="30" as="geometry"/>
                </mxCell>
                <mxCell id="7C1l2Xv-H3bEY7cuFIju-1" value="" style="endArrow=classic;html=1;fontSize=15;strokeColor=#432D57;exitX=1;exitY=0.5;exitDx=0;exitDy=0;fillColor=#76608a;" parent="Zj6yhEbdwNJzNqMhZD0T-1" source="_M4chHHt4FsStTuZnUq3-21" edge="1">
                    <mxGeometry width="50" height="50" relative="1" as="geometry">
                        <mxPoint x="987" y="-600" as="sourcePoint"/>
                        <mxPoint x="1087" y="-605" as="targetPoint"/>
                    </mxGeometry>
                </mxCell>
                <mxCell id="7C1l2Xv-H3bEY7cuFIju-2" value="" style="endArrow=classic;html=1;fontSize=15;strokeColor=#23445d;entryX=0.5;entryY=0;entryDx=0;entryDy=0;fillColor=#bac8d3;" parent="Zj6yhEbdwNJzNqMhZD0T-1" source="B55kDetTeWWXbYuLlCa1-8" target="7C1l2Xv-H3bEY7cuFIju-0" edge="1">
                    <mxGeometry width="50" height="50" relative="1" as="geometry">
                        <mxPoint x="1092" y="-850" as="sourcePoint"/>
                        <mxPoint x="1032" y="-695" as="targetPoint"/>
                    </mxGeometry>
                </mxCell>
                <mxCell id="7C1l2Xv-H3bEY7cuFIju-3" value="Не установлен" style="html=1;fillColor=#b1ddf0;strokeColor=#10739e;" parent="Zj6yhEbdwNJzNqMhZD0T-1" vertex="1">
                    <mxGeometry x="787" y="-312" width="140" height="30" as="geometry"/>
                </mxCell>
                <mxCell id="7C1l2Xv-H3bEY7cuFIju-4" value="" style="endArrow=classic;html=1;fontSize=15;strokeColor=#006EAF;fillColor=#1ba1e2;exitX=1;exitY=0.5;exitDx=0;exitDy=0;" parent="Zj6yhEbdwNJzNqMhZD0T-1" source="_M4chHHt4FsStTuZnUq3-0" edge="1">
                    <mxGeometry width="50" height="50" relative="1" as="geometry">
                        <mxPoint x="307" y="-410" as="sourcePoint"/>
                        <mxPoint x="857" y="-425" as="targetPoint"/>
                    </mxGeometry>
                </mxCell>
                <mxCell id="7C1l2Xv-H3bEY7cuFIju-6" value="Выключен" style="html=1;fillColor=#d0cee2;strokeColor=#56517e;" parent="Zj6yhEbdwNJzNqMhZD0T-1" vertex="1">
                    <mxGeometry x="1022" y="-151" width="140" height="30" as="geometry"/>
                </mxCell>
                <mxCell id="7C1l2Xv-H3bEY7cuFIju-8" value="" style="endArrow=classic;html=1;fontSize=15;strokeColor=#23445d;exitX=0.5;exitY=1;exitDx=0;exitDy=0;entryX=0.5;entryY=0;entryDx=0;entryDy=0;fillColor=#bac8d3;" parent="Zj6yhEbdwNJzNqMhZD0T-1" source="7C1l2Xv-H3bEY7cuFIju-0" target="7C1l2Xv-H3bEY7cuFIju-6" edge="1">
                    <mxGeometry width="50" height="50" relative="1" as="geometry">
                        <mxPoint x="1127" y="-510" as="sourcePoint"/>
                        <mxPoint x="1177" y="-560" as="targetPoint"/>
                    </mxGeometry>
                </mxCell>
                <mxCell id="7C1l2Xv-H3bEY7cuFIju-9" value="" style="endArrow=classic;html=1;fontSize=15;strokeColor=#432D57;exitX=1;exitY=0.5;exitDx=0;exitDy=0;fillColor=#76608a;" parent="Zj6yhEbdwNJzNqMhZD0T-1" source="7C1l2Xv-H3bEY7cuFIju-3" edge="1">
                    <mxGeometry width="50" height="50" relative="1" as="geometry">
                        <mxPoint x="1057" y="-222" as="sourcePoint"/>
                        <mxPoint x="1090" y="-297" as="targetPoint"/>
                        <Array as="points"/>
                    </mxGeometry>
                </mxCell>
                <mxCell id="7C1l2Xv-H3bEY7cuFIju-11" value="" style="endArrow=classic;html=1;fontSize=15;strokeColor=#BD7000;fillColor=#f0a30a;exitX=1;exitY=0.5;exitDx=0;exitDy=0;" parent="Zj6yhEbdwNJzNqMhZD0T-1" source="9bJtHi9JNe8bzx8bbzRI-1" edge="1">
                    <mxGeometry width="50" height="50" relative="1" as="geometry">
                        <mxPoint x="197" y="-585" as="sourcePoint"/>
                        <mxPoint x="617" y="-664" as="targetPoint"/>
                    </mxGeometry>
                </mxCell>
                <mxCell id="TWjczzs-O8njxm2eDzZU-0" value="Сброшен" style="html=1;fillColor=#fad7ac;strokeColor=#b46504;" parent="Zj6yhEbdwNJzNqMhZD0T-1" vertex="1">
                    <mxGeometry x="551" y="-152" width="140" height="30" as="geometry"/>
                </mxCell>
                <mxCell id="TWjczzs-O8njxm2eDzZU-1" value="" style="endArrow=classic;html=1;fontSize=15;strokeColor=#23445d;exitX=0.5;exitY=1;exitDx=0;exitDy=0;entryX=0.5;entryY=0;entryDx=0;entryDy=0;fillColor=#bac8d3;" parent="Zj6yhEbdwNJzNqMhZD0T-1" source="_M4chHHt4FsStTuZnUq3-17" target="TWjczzs-O8njxm2eDzZU-0" edge="1">
                    <mxGeometry width="50" height="50" relative="1" as="geometry">
                        <mxPoint x="702" y="-436" as="sourcePoint"/>
                        <mxPoint x="832" y="-420" as="targetPoint"/>
                        <Array as="points"/>
                    </mxGeometry>
                </mxCell>
                <mxCell id="B55kDetTeWWXbYuLlCa1-0" value="Выключена" style="html=1;fillColor=#d5e8d4;strokeColor=#82b366;" parent="Zj6yhEbdwNJzNqMhZD0T-1" vertex="1">
                    <mxGeometry x="117" y="-1140" width="150" height="30" as="geometry"/>
                </mxCell>
                <mxCell id="B55kDetTeWWXbYuLlCa1-2" value="" style="endArrow=classic;html=1;entryX=0.5;entryY=0;entryDx=0;entryDy=0;" parent="Zj6yhEbdwNJzNqMhZD0T-1" source="8Y-UVGw0mTz3NFHsVKU5-0" target="-fWvLwIFoZsGVdPvu5W6-0" edge="1">
                    <mxGeometry width="50" height="50" relative="1" as="geometry">
                        <mxPoint x="192" y="-1010" as="sourcePoint"/>
                        <mxPoint x="350" y="-870" as="targetPoint"/>
                    </mxGeometry>
                </mxCell>
                <mxCell id="B55kDetTeWWXbYuLlCa1-5" value="" style="endArrow=classic;html=1;fillColor=#60a917;strokeColor=#2D7600;exitX=0;exitY=0.5;exitDx=0;exitDy=0;" parent="Zj6yhEbdwNJzNqMhZD0T-1" source="E8N4iQsdscOyhsd-9uqy-2" edge="1">
                    <mxGeometry width="50" height="50" relative="1" as="geometry">
                        <mxPoint x="342" y="-855" as="sourcePoint"/>
                        <mxPoint x="190" y="-985" as="targetPoint"/>
                    </mxGeometry>
                </mxCell>
                <mxCell id="B55kDetTeWWXbYuLlCa1-6" value="Готов к установлению" style="html=1;fillColor=#b1ddf0;strokeColor=#10739e;" parent="Zj6yhEbdwNJzNqMhZD0T-1" vertex="1">
                    <mxGeometry x="787" y="-860" width="140" height="30" as="geometry"/>
                </mxCell>
                <mxCell id="B55kDetTeWWXbYuLlCa1-7" value="" style="endArrow=classic;html=1;exitX=0.5;exitY=1;exitDx=0;exitDy=0;entryX=0.5;entryY=0;entryDx=0;entryDy=0;" parent="Zj6yhEbdwNJzNqMhZD0T-1" source="CSFTJBS7xgZftHJxtxEu-0" target="B55kDetTeWWXbYuLlCa1-6" edge="1">
                    <mxGeometry width="50" height="50" relative="1" as="geometry">
                        <mxPoint x="720" y="-910" as="sourcePoint"/>
                        <mxPoint x="880" y="-880" as="targetPoint"/>
                    </mxGeometry>
                </mxCell>
                <mxCell id="B55kDetTeWWXbYuLlCa1-8" value="Готов нагревать" style="html=1;fillColor=#e1d5e7;strokeColor=#9673a6;" parent="Zj6yhEbdwNJzNqMhZD0T-1" vertex="1">
                    <mxGeometry x="1022" y="-860" width="140" height="30" as="geometry"/>
                </mxCell>
                <mxCell id="B55kDetTeWWXbYuLlCa1-9" value="" style="endArrow=classic;html=1;exitX=0.5;exitY=1;exitDx=0;exitDy=0;entryX=0.5;entryY=0;entryDx=0;entryDy=0;" parent="Zj6yhEbdwNJzNqMhZD0T-1" source="CSFTJBS7xgZftHJxtxEu-1" target="B55kDetTeWWXbYuLlCa1-8" edge="1">
                    <mxGeometry width="50" height="50" relative="1" as="geometry">
                        <mxPoint x="1260" y="-920" as="sourcePoint"/>
                        <mxPoint x="1310" y="-960" as="targetPoint"/>
                    </mxGeometry>
                </mxCell>
                <mxCell id="B55kDetTeWWXbYuLlCa1-10" value="Готов к вводу" style="html=1;fillColor=#fad7ac;strokeColor=#b46504;" parent="Zj6yhEbdwNJzNqMhZD0T-1" vertex="1">
                    <mxGeometry x="552" y="-860" width="140" height="30" as="geometry"/>
                </mxCell>
                <mxCell id="B55kDetTeWWXbYuLlCa1-11" value="" style="endArrow=classic;html=1;exitX=0.5;exitY=1;exitDx=0;exitDy=0;entryX=0.5;entryY=0;entryDx=0;entryDy=0;" parent="Zj6yhEbdwNJzNqMhZD0T-1" source="3ijWkTZ4UENiAqEJU-tE-0" target="B55kDetTeWWXbYuLlCa1-10" edge="1">
                    <mxGeometry width="50" height="50" relative="1" as="geometry">
                        <mxPoint x="650" y="-890" as="sourcePoint"/>
                        <mxPoint x="700" y="-940" as="targetPoint"/>
                    </mxGeometry>
                </mxCell>
                <mxCell id="B55kDetTeWWXbYuLlCa1-13" value="" style="edgeStyle=none;html=1;" parent="Zj6yhEbdwNJzNqMhZD0T-1" edge="1">
                    <mxGeometry relative="1" as="geometry">
                        <mxPoint x="417" y="-970" as="sourcePoint"/>
                        <mxPoint x="417" y="-970" as="targetPoint"/>
                    </mxGeometry>
                </mxCell>
                <mxCell id="B55kDetTeWWXbYuLlCa1-18" value="" style="endArrow=classic;html=1;exitX=0.5;exitY=1;exitDx=0;exitDy=0;entryX=0.5;entryY=0;entryDx=0;entryDy=0;" parent="Zj6yhEbdwNJzNqMhZD0T-1" source="-fWvLwIFoZsGVdPvu5W6-1" edge="1">
                    <mxGeometry width="50" height="50" relative="1" as="geometry">
                        <mxPoint x="490" y="-870" as="sourcePoint"/>
                        <mxPoint x="417" y="-1000" as="targetPoint"/>
                    </mxGeometry>
                </mxCell>
                <mxCell id="B55kDetTeWWXbYuLlCa1-20" value="" style="endArrow=classic;html=1;fillColor=#ffe6cc;strokeColor=#d79b00;exitX=1;exitY=0;exitDx=0;exitDy=0;" parent="Zj6yhEbdwNJzNqMhZD0T-1" source="-fWvLwIFoZsGVdPvu5W6-0" edge="1">
                    <mxGeometry width="50" height="50" relative="1" as="geometry">
                        <mxPoint x="280" y="-920" as="sourcePoint"/>
                        <mxPoint x="620" y="-940" as="targetPoint"/>
                    </mxGeometry>
                </mxCell>
                <mxCell id="B55kDetTeWWXbYuLlCa1-22" value="" style="endArrow=classic;html=1;exitX=1;exitY=1;exitDx=0;exitDy=0;fillColor=#e1d5e7;strokeColor=#9673a6;" parent="Zj6yhEbdwNJzNqMhZD0T-1" source="-fWvLwIFoZsGVdPvu5W6-0" edge="1">
                    <mxGeometry width="50" height="50" relative="1" as="geometry">
                        <mxPoint x="277" y="-897.5" as="sourcePoint"/>
                        <mxPoint x="1090" y="-890" as="targetPoint"/>
                        <Array as="points">
                            <mxPoint x="840" y="-890"/>
                        </Array>
                    </mxGeometry>
                </mxCell>
                <mxCell id="B55kDetTeWWXbYuLlCa1-24" value="" style="endArrow=classic;html=1;fontSize=15;strokeColor=#006EAF;fillColor=#1ba1e2;exitX=1;exitY=0.5;exitDx=0;exitDy=0;" parent="Zj6yhEbdwNJzNqMhZD0T-1" source="-fWvLwIFoZsGVdPvu5W6-0" edge="1">
                    <mxGeometry width="50" height="50" relative="1" as="geometry">
                        <mxPoint x="277" y="-775" as="sourcePoint"/>
                        <mxPoint x="850" y="-915" as="targetPoint"/>
                        <Array as="points"/>
                    </mxGeometry>
                </mxCell>
                <mxCell id="8Y-UVGw0mTz3NFHsVKU5-0" value="Готова включиться" style="html=1;fillColor=#d5e8d4;strokeColor=#82b366;" parent="Zj6yhEbdwNJzNqMhZD0T-1" vertex="1">
                    <mxGeometry x="117" y="-1040" width="150" height="30" as="geometry"/>
                </mxCell>
                <mxCell id="E8N4iQsdscOyhsd-9uqy-0" value="" style="endArrow=classic;html=1;entryX=0.5;entryY=0;entryDx=0;entryDy=0;exitX=0.5;exitY=1;exitDx=0;exitDy=0;" parent="Zj6yhEbdwNJzNqMhZD0T-1" source="B55kDetTeWWXbYuLlCa1-0" target="8Y-UVGw0mTz3NFHsVKU5-0" edge="1">
                    <mxGeometry width="50" height="50" relative="1" as="geometry">
                        <mxPoint x="300" y="-950" as="sourcePoint"/>
                        <mxPoint x="350" y="-1000" as="targetPoint"/>
                    </mxGeometry>
                </mxCell>
                <mxCell id="E8N4iQsdscOyhsd-9uqy-1" value="" style="endArrow=classic;html=1;exitX=1;exitY=0.5;exitDx=0;exitDy=0;fillColor=#f8cecc;strokeColor=#b85450;" parent="Zj6yhEbdwNJzNqMhZD0T-1" source="8Y-UVGw0mTz3NFHsVKU5-0" edge="1">
                    <mxGeometry width="50" height="50" relative="1" as="geometry">
                        <mxPoint x="350" y="-1020" as="sourcePoint"/>
                        <mxPoint x="410" y="-1025" as="targetPoint"/>
                    </mxGeometry>
                </mxCell>
                <mxCell id="E8N4iQsdscOyhsd-9uqy-2" value="Включена в сеть" style="html=1;fillColor=#fad9d5;strokeColor=#ae4132;" parent="Zj6yhEbdwNJzNqMhZD0T-1" vertex="1">
                    <mxGeometry x="347" y="-1000" width="150" height="30" as="geometry"/>
                </mxCell>
                <mxCell id="E8N4iQsdscOyhsd-9uqy-4" value="" style="endArrow=classic;html=1;fillColor=#f8cecc;strokeColor=#b85450;exitX=0;exitY=0.5;exitDx=0;exitDy=0;" parent="Zj6yhEbdwNJzNqMhZD0T-1" source="_M4chHHt4FsStTuZnUq3-9" edge="1">
                    <mxGeometry width="50" height="50" relative="1" as="geometry">
                        <mxPoint x="340" y="-274" as="sourcePoint"/>
                        <mxPoint x="200" y="-255" as="targetPoint"/>
                    </mxGeometry>
                </mxCell>
                <mxCell id="E8N4iQsdscOyhsd-9uqy-8" value="" style="endArrow=classic;html=1;exitX=1;exitY=0.5;exitDx=0;exitDy=0;fillColor=#f0a30a;strokeColor=#BD7000;" parent="Zj6yhEbdwNJzNqMhZD0T-1" source="_M4chHHt4FsStTuZnUq3-2" edge="1">
                    <mxGeometry width="50" height="50" relative="1" as="geometry">
                        <mxPoint x="380" y="-62" as="sourcePoint"/>
                        <mxPoint x="610" y="-187" as="targetPoint"/>
                    </mxGeometry>
                </mxCell>
                <mxCell id="nPYoR4pMxXM1pNV0a-HK-0" value="" style="endArrow=classic;html=1;rounded=0;exitX=0;exitY=0.5;exitDx=0;exitDy=0;fillColor=#60a917;strokeColor=#2D7600;" parent="Zj6yhEbdwNJzNqMhZD0T-1" source="_M4chHHt4FsStTuZnUq3-11" edge="1">
                    <mxGeometry width="50" height="50" relative="1" as="geometry">
                        <mxPoint x="310" y="-560" as="sourcePoint"/>
                        <mxPoint x="200" y="-605" as="targetPoint"/>
                    </mxGeometry>
                </mxCell>
                <mxCell id="ZybdOVk5WjGqvjC3CjWN-0" value="Вынимаем из розетки" style="html=1;fillColor=#d5e8d4;strokeColor=#82b366;" vertex="1" parent="Zj6yhEbdwNJzNqMhZD0T-1">
                    <mxGeometry x="117" y="-320" width="150" height="30" as="geometry"/>
                </mxCell>
                <mxCell id="ZybdOVk5WjGqvjC3CjWN-1" value="" style="endArrow=classic;html=1;exitX=1;exitY=0.5;exitDx=0;exitDy=0;fillColor=#60a917;strokeColor=#2D7600;" edge="1" parent="Zj6yhEbdwNJzNqMhZD0T-1" source="ZybdOVk5WjGqvjC3CjWN-0">
                    <mxGeometry width="50" height="50" relative="1" as="geometry">
                        <mxPoint x="290" y="-310" as="sourcePoint"/>
                        <mxPoint x="410" y="-305" as="targetPoint"/>
                    </mxGeometry>
                </mxCell>
            </root>
        </mxGraphModel>
    </diagram>
</mxfile>